<?xml version="1.0" encoding="utf-8" standalone="no"?>
<!DOCTYPE svg PUBLIC "-//W3C//DTD SVG 1.1//EN"
  "http://www.w3.org/Graphics/SVG/1.1/DTD/svg11.dtd">
<svg xmlns:xlink="http://www.w3.org/1999/xlink" width="691.2pt" height="244.8pt" viewBox="0 0 691.2 244.8" xmlns="http://www.w3.org/2000/svg" version="1.1">
 <metadata>
  <rdf:RDF xmlns:dc="http://purl.org/dc/elements/1.1/" xmlns:cc="http://creativecommons.org/ns#" xmlns:rdf="http://www.w3.org/1999/02/22-rdf-syntax-ns#">
   <cc:Work>
    <dc:type rdf:resource="http://purl.org/dc/dcmitype/StillImage"/>
    <dc:date>2026-09-14T23:57:54.727514</dc:date>
    <dc:format>image/svg+xml</dc:format>
    <dc:creator>
     <cc:Agent>
      <dc:title>Matplotlib v3.10.9, https://matplotlib.org/</dc:title>
     </cc:Agent>
    </dc:creator>
   </cc:Work>
  </rdf:RDF>
 </metadata>
 <defs>
  <style type="text/css">*{stroke-linejoin: round; stroke-linecap: butt}</style>
 </defs>
 <g id="figure_1">
  <g id="patch_1">
   <path d="M 0 244.8 
L 691.2 244.8 
L 691.2 0 
L 0 0 
z
" style="fill: #ffffff"/>
  </g>
  <g id="axes_1">
   <g id="patch_2">
    <path d="M 16.683864 168.688 
L 680.4 168.688 
L 680.4 43.968 
L 16.683864 43.968 
z
" style="fill: #ffffff"/>
   </g>
   <g id="line2d_1">
    <path d="M 309.168941 168.688 
L 309.168941 43.968 
" clip-path="url(#pb0ebe4f41f)" style="fill: none; stroke-dasharray: 5.92,2.56; stroke-dashoffset: 0; stroke: #000000; stroke-width: 1.6"/>
   </g>
   <g id="matplotlib.axis_1">
    <g id="xtick_1">
     <g id="line2d_2">
      <defs>
       <path id="mff3f73e65f" d="M 0 0 
L 0 3.5 
" style="stroke: #000000; stroke-width: 0.8"/>
      </defs>
      <g>
       <use xlink:href="#mff3f73e65f" x="39.182716" y="168.688" style="stroke: #000000; stroke-width: 0.8"/>
      </g>
     </g>
     <g id="text_1">
      <!-- 3000 -->
      <g transform="translate(26.457716 183.286438) scale(0.1 -0.1)">
       <defs>
        <path id="DejaVuSans-33" d="M 2597 2516 
Q 3050 2419 3304 2112 
Q 3559 1806 3559 1356 
Q 3559 666 3084 287 
Q 2609 -91 1734 -91 
Q 1441 -91 1130 -33 
Q 819 25 488 141 
L 488 750 
Q 750 597 1062 519 
Q 1375 441 1716 441 
Q 2309 441 2620 675 
Q 2931 909 2931 1356 
Q 2931 1769 2642 2001 
Q 2353 2234 1838 2234 
L 1294 2234 
L 1294 2753 
L 1863 2753 
Q 2328 2753 2575 2939 
Q 2822 3125 2822 3475 
Q 2822 3834 2567 4026 
Q 2313 4219 1838 4219 
Q 1578 4219 1281 4162 
Q 984 4106 628 3988 
L 628 4550 
Q 988 4650 1302 4700 
Q 1616 4750 1894 4750 
Q 2613 4750 3031 4423 
Q 3450 4097 3450 3541 
Q 3450 3153 3228 2886 
Q 3006 2619 2597 2516 
z
" transform="scale(0.015625)"/>
        <path id="DejaVuSans-30" d="M 2034 4250 
Q 1547 4250 1301 3770 
Q 1056 3291 1056 2328 
Q 1056 1369 1301 889 
Q 1547 409 2034 409 
Q 2525 409 2770 889 
Q 3016 1369 3016 2328 
Q 3016 3291 2770 3770 
Q 2525 4250 2034 4250 
z
M 2034 4750 
Q 2819 4750 3233 4129 
Q 3647 3509 3647 2328 
Q 3647 1150 3233 529 
Q 2819 -91 2034 -91 
Q 1250 -91 836 529 
Q 422 1150 422 2328 
Q 422 3509 836 4129 
Q 1250 4750 2034 4750 
z
" transform="scale(0.015625)"/>
       </defs>
       <use xlink:href="#DejaVuSans-33"/>
       <use xlink:href="#DejaVuSans-30" transform="translate(63.623047 0)"/>
       <use xlink:href="#DejaVuSans-30" transform="translate(127.246094 0)"/>
       <use xlink:href="#DejaVuSans-30" transform="translate(190.869141 0)"/>
      </g>
     </g>
    </g>
    <g id="xtick_2">
     <g id="line2d_3">
      <g>
       <use xlink:href="#mff3f73e65f" x="151.676977" y="168.688" style="stroke: #000000; stroke-width: 0.8"/>
      </g>
     </g>
     <g id="text_2">
      <!-- 4000 -->
      <g transform="translate(138.951977 183.286438) scale(0.1 -0.1)">
       <defs>
        <path id="DejaVuSans-34" d="M 2419 4116 
L 825 1625 
L 2419 1625 
L 2419 4116 
z
M 2253 4666 
L 3047 4666 
L 3047 1625 
L 3713 1625 
L 3713 1100 
L 3047 1100 
L 3047 0 
L 2419 0 
L 2419 1100 
L 313 1100 
L 313 1709 
L 2253 4666 
z
" transform="scale(0.015625)"/>
       </defs>
       <use xlink:href="#DejaVuSans-34"/>
       <use xlink:href="#DejaVuSans-30" transform="translate(63.623047 0)"/>
       <use xlink:href="#DejaVuSans-30" transform="translate(127.246094 0)"/>
       <use xlink:href="#DejaVuSans-30" transform="translate(190.869141 0)"/>
      </g>
     </g>
    </g>
    <g id="xtick_3">
     <g id="line2d_4">
      <g>
       <use xlink:href="#mff3f73e65f" x="264.171237" y="168.688" style="stroke: #000000; stroke-width: 0.8"/>
      </g>
     </g>
     <g id="text_3">
      <!-- 5000 -->
      <g transform="translate(251.446237 183.286438) scale(0.1 -0.1)">
       <defs>
        <path id="DejaVuSans-35" d="M 691 4666 
L 3169 4666 
L 3169 4134 
L 1269 4134 
L 1269 2991 
Q 1406 3038 1543 3061 
Q 1681 3084 1819 3084 
Q 2600 3084 3056 2656 
Q 3513 2228 3513 1497 
Q 3513 744 3044 326 
Q 2575 -91 1722 -91 
Q 1428 -91 1123 -41 
Q 819 9 494 109 
L 494 744 
Q 775 591 1075 516 
Q 1375 441 1709 441 
Q 2250 441 2565 725 
Q 2881 1009 2881 1497 
Q 2881 1984 2565 2268 
Q 2250 2553 1709 2553 
Q 1456 2553 1204 2497 
Q 953 2441 691 2322 
L 691 4666 
z
" transform="scale(0.015625)"/>
       </defs>
       <use xlink:href="#DejaVuSans-35"/>
       <use xlink:href="#DejaVuSans-30" transform="translate(63.623047 0)"/>
       <use xlink:href="#DejaVuSans-30" transform="translate(127.246094 0)"/>
       <use xlink:href="#DejaVuSans-30" transform="translate(190.869141 0)"/>
      </g>
     </g>
    </g>
    <g id="xtick_4">
     <g id="line2d_5">
      <g>
       <use xlink:href="#mff3f73e65f" x="376.665497" y="168.688" style="stroke: #000000; stroke-width: 0.8"/>
      </g>
     </g>
     <g id="text_4">
      <!-- 6000 -->
      <g transform="translate(363.940497 183.286438) scale(0.1 -0.1)">
       <defs>
        <path id="DejaVuSans-36" d="M 2113 2584 
Q 1688 2584 1439 2293 
Q 1191 2003 1191 1497 
Q 1191 994 1439 701 
Q 1688 409 2113 409 
Q 2538 409 2786 701 
Q 3034 994 3034 1497 
Q 3034 2003 2786 2293 
Q 2538 2584 2113 2584 
z
M 3366 4563 
L 3366 3988 
Q 3128 4100 2886 4159 
Q 2644 4219 2406 4219 
Q 1781 4219 1451 3797 
Q 1122 3375 1075 2522 
Q 1259 2794 1537 2939 
Q 1816 3084 2150 3084 
Q 2853 3084 3261 2657 
Q 3669 2231 3669 1497 
Q 3669 778 3244 343 
Q 2819 -91 2113 -91 
Q 1303 -91 875 529 
Q 447 1150 447 2328 
Q 447 3434 972 4092 
Q 1497 4750 2381 4750 
Q 2619 4750 2861 4703 
Q 3103 4656 3366 4563 
z
" transform="scale(0.015625)"/>
       </defs>
       <use xlink:href="#DejaVuSans-36"/>
       <use xlink:href="#DejaVuSans-30" transform="translate(63.623047 0)"/>
       <use xlink:href="#DejaVuSans-30" transform="translate(127.246094 0)"/>
       <use xlink:href="#DejaVuSans-30" transform="translate(190.869141 0)"/>
      </g>
     </g>
    </g>
    <g id="xtick_5">
     <g id="line2d_6">
      <g>
       <use xlink:href="#mff3f73e65f" x="489.159758" y="168.688" style="stroke: #000000; stroke-width: 0.8"/>
      </g>
     </g>
     <g id="text_5">
      <!-- 7000 -->
      <g transform="translate(476.434758 183.286438) scale(0.1 -0.1)">
       <defs>
        <path id="DejaVuSans-37" d="M 525 4666 
L 3525 4666 
L 3525 4397 
L 1831 0 
L 1172 0 
L 2766 4134 
L 525 4134 
L 525 4666 
z
" transform="scale(0.015625)"/>
       </defs>
       <use xlink:href="#DejaVuSans-37"/>
       <use xlink:href="#DejaVuSans-30" transform="translate(63.623047 0)"/>
       <use xlink:href="#DejaVuSans-30" transform="translate(127.246094 0)"/>
       <use xlink:href="#DejaVuSans-30" transform="translate(190.869141 0)"/>
      </g>
     </g>
    </g>
    <g id="xtick_6">
     <g id="line2d_7">
      <g>
       <use xlink:href="#mff3f73e65f" x="601.654018" y="168.688" style="stroke: #000000; stroke-width: 0.8"/>
      </g>
     </g>
     <g id="text_6">
      <!-- 8000 -->
      <g transform="translate(588.929018 183.286438) scale(0.1 -0.1)">
       <defs>
        <path id="DejaVuSans-38" d="M 2034 2216 
Q 1584 2216 1326 1975 
Q 1069 1734 1069 1313 
Q 1069 891 1326 650 
Q 1584 409 2034 409 
Q 2484 409 2743 651 
Q 3003 894 3003 1313 
Q 3003 1734 2745 1975 
Q 2488 2216 2034 2216 
z
M 1403 2484 
Q 997 2584 770 2862 
Q 544 3141 544 3541 
Q 544 4100 942 4425 
Q 1341 4750 2034 4750 
Q 2731 4750 3128 4425 
Q 3525 4100 3525 3541 
Q 3525 3141 3298 2862 
Q 3072 2584 2669 2484 
Q 3125 2378 3379 2068 
Q 3634 1759 3634 1313 
Q 3634 634 3220 271 
Q 2806 -91 2034 -91 
Q 1263 -91 848 271 
Q 434 634 434 1313 
Q 434 1759 690 2068 
Q 947 2378 1403 2484 
z
M 1172 3481 
Q 1172 3119 1398 2916 
Q 1625 2713 2034 2713 
Q 2441 2713 2670 2916 
Q 2900 3119 2900 3481 
Q 2900 3844 2670 4047 
Q 2441 4250 2034 4250 
Q 1625 4250 1398 4047 
Q 1172 3844 1172 3481 
z
" transform="scale(0.015625)"/>
       </defs>
       <use xlink:href="#DejaVuSans-38"/>
       <use xlink:href="#DejaVuSans-30" transform="translate(63.623047 0)"/>
       <use xlink:href="#DejaVuSans-30" transform="translate(127.246094 0)"/>
       <use xlink:href="#DejaVuSans-30" transform="translate(190.869141 0)"/>
      </g>
     </g>
    </g>
    <g id="text_7">
     <!-- time since task start (s) -->
     <g transform="translate(289.226307 202.964562) scale(0.1 -0.1)">
      <defs>
       <path id="DejaVuSans-74" d="M 1172 4494 
L 1172 3500 
L 2356 3500 
L 2356 3053 
L 1172 3053 
L 1172 1153 
Q 1172 725 1289 603 
Q 1406 481 1766 481 
L 2356 481 
L 2356 0 
L 1766 0 
Q 1100 0 847 248 
Q 594 497 594 1153 
L 594 3053 
L 172 3053 
L 172 3500 
L 594 3500 
L 594 4494 
L 1172 4494 
z
" transform="scale(0.015625)"/>
       <path id="DejaVuSans-69" d="M 603 3500 
L 1178 3500 
L 1178 0 
L 603 0 
L 603 3500 
z
M 603 4863 
L 1178 4863 
L 1178 4134 
L 603 4134 
L 603 4863 
z
" transform="scale(0.015625)"/>
       <path id="DejaVuSans-6d" d="M 3328 2828 
Q 3544 3216 3844 3400 
Q 4144 3584 4550 3584 
Q 5097 3584 5394 3201 
Q 5691 2819 5691 2113 
L 5691 0 
L 5113 0 
L 5113 2094 
Q 5113 2597 4934 2840 
Q 4756 3084 4391 3084 
Q 3944 3084 3684 2787 
Q 3425 2491 3425 1978 
L 3425 0 
L 2847 0 
L 2847 2094 
Q 2847 2600 2669 2842 
Q 2491 3084 2119 3084 
Q 1678 3084 1418 2786 
Q 1159 2488 1159 1978 
L 1159 0 
L 581 0 
L 581 3500 
L 1159 3500 
L 1159 2956 
Q 1356 3278 1631 3431 
Q 1906 3584 2284 3584 
Q 2666 3584 2933 3390 
Q 3200 3197 3328 2828 
z
" transform="scale(0.015625)"/>
       <path id="DejaVuSans-65" d="M 3597 1894 
L 3597 1613 
L 953 1613 
Q 991 1019 1311 708 
Q 1631 397 2203 397 
Q 2534 397 2845 478 
Q 3156 559 3463 722 
L 3463 178 
Q 3153 47 2828 -22 
Q 2503 -91 2169 -91 
Q 1331 -91 842 396 
Q 353 884 353 1716 
Q 353 2575 817 3079 
Q 1281 3584 2069 3584 
Q 2775 3584 3186 3129 
Q 3597 2675 3597 1894 
z
M 3022 2063 
Q 3016 2534 2758 2815 
Q 2500 3097 2075 3097 
Q 1594 3097 1305 2825 
Q 1016 2553 972 2059 
L 3022 2063 
z
" transform="scale(0.015625)"/>
       <path id="DejaVuSans-20" transform="scale(0.015625)"/>
       <path id="DejaVuSans-73" d="M 2834 3397 
L 2834 2853 
Q 2591 2978 2328 3040 
Q 2066 3103 1784 3103 
Q 1356 3103 1142 2972 
Q 928 2841 928 2578 
Q 928 2378 1081 2264 
Q 1234 2150 1697 2047 
L 1894 2003 
Q 2506 1872 2764 1633 
Q 3022 1394 3022 966 
Q 3022 478 2636 193 
Q 2250 -91 1575 -91 
Q 1294 -91 989 -36 
Q 684 19 347 128 
L 347 722 
Q 666 556 975 473 
Q 1284 391 1588 391 
Q 1994 391 2212 530 
Q 2431 669 2431 922 
Q 2431 1156 2273 1281 
Q 2116 1406 1581 1522 
L 1381 1569 
Q 847 1681 609 1914 
Q 372 2147 372 2553 
Q 372 3047 722 3315 
Q 1072 3584 1716 3584 
Q 2034 3584 2315 3537 
Q 2597 3491 2834 3397 
z
" transform="scale(0.015625)"/>
       <path id="DejaVuSans-6e" d="M 3513 2113 
L 3513 0 
L 2938 0 
L 2938 2094 
Q 2938 2591 2744 2837 
Q 2550 3084 2163 3084 
Q 1697 3084 1428 2787 
Q 1159 2491 1159 1978 
L 1159 0 
L 581 0 
L 581 3500 
L 1159 3500 
L 1159 2956 
Q 1366 3272 1645 3428 
Q 1925 3584 2291 3584 
Q 2894 3584 3203 3211 
Q 3513 2838 3513 2113 
z
" transform="scale(0.015625)"/>
       <path id="DejaVuSans-63" d="M 3122 3366 
L 3122 2828 
Q 2878 2963 2633 3030 
Q 2388 3097 2138 3097 
Q 1578 3097 1268 2742 
Q 959 2388 959 1747 
Q 959 1106 1268 751 
Q 1578 397 2138 397 
Q 2388 397 2633 464 
Q 2878 531 3122 666 
L 3122 134 
Q 2881 22 2623 -34 
Q 2366 -91 2075 -91 
Q 1284 -91 818 406 
Q 353 903 353 1747 
Q 353 2603 823 3093 
Q 1294 3584 2113 3584 
Q 2378 3584 2631 3529 
Q 2884 3475 3122 3366 
z
" transform="scale(0.015625)"/>
       <path id="DejaVuSans-61" d="M 2194 1759 
Q 1497 1759 1228 1600 
Q 959 1441 959 1056 
Q 959 750 1161 570 
Q 1363 391 1709 391 
Q 2188 391 2477 730 
Q 2766 1069 2766 1631 
L 2766 1759 
L 2194 1759 
z
M 3341 1997 
L 3341 0 
L 2766 0 
L 2766 531 
Q 2569 213 2275 61 
Q 1981 -91 1556 -91 
Q 1019 -91 701 211 
Q 384 513 384 1019 
Q 384 1609 779 1909 
Q 1175 2209 1959 2209 
L 2766 2209 
L 2766 2266 
Q 2766 2663 2505 2880 
Q 2244 3097 1772 3097 
Q 1472 3097 1187 3025 
Q 903 2953 641 2809 
L 641 3341 
Q 956 3463 1253 3523 
Q 1550 3584 1831 3584 
Q 2591 3584 2966 3190 
Q 3341 2797 3341 1997 
z
" transform="scale(0.015625)"/>
       <path id="DejaVuSans-6b" d="M 581 4863 
L 1159 4863 
L 1159 1991 
L 2875 3500 
L 3609 3500 
L 1753 1863 
L 3688 0 
L 2938 0 
L 1159 1709 
L 1159 0 
L 581 0 
L 581 4863 
z
" transform="scale(0.015625)"/>
       <path id="DejaVuSans-72" d="M 2631 2963 
Q 2534 3019 2420 3045 
Q 2306 3072 2169 3072 
Q 1681 3072 1420 2755 
Q 1159 2438 1159 1844 
L 1159 0 
L 581 0 
L 581 3500 
L 1159 3500 
L 1159 2956 
Q 1341 3275 1631 3429 
Q 1922 3584 2338 3584 
Q 2397 3584 2469 3576 
Q 2541 3569 2628 3553 
L 2631 2963 
z
" transform="scale(0.015625)"/>
       <path id="DejaVuSans-28" d="M 1984 4856 
Q 1566 4138 1362 3434 
Q 1159 2731 1159 2009 
Q 1159 1288 1364 580 
Q 1569 -128 1984 -844 
L 1484 -844 
Q 1016 -109 783 600 
Q 550 1309 550 2009 
Q 550 2706 781 3412 
Q 1013 4119 1484 4856 
L 1984 4856 
z
" transform="scale(0.015625)"/>
       <path id="DejaVuSans-29" d="M 513 4856 
L 1013 4856 
Q 1481 4119 1714 3412 
Q 1947 2706 1947 2009 
Q 1947 1309 1714 600 
Q 1481 -109 1013 -844 
L 513 -844 
Q 928 -128 1133 580 
Q 1338 1288 1338 2009 
Q 1338 2731 1133 3434 
Q 928 4138 513 4856 
z
" transform="scale(0.015625)"/>
      </defs>
      <use xlink:href="#DejaVuSans-74"/>
      <use xlink:href="#DejaVuSans-69" transform="translate(39.208984 0)"/>
      <use xlink:href="#DejaVuSans-6d" transform="translate(66.992188 0)"/>
      <use xlink:href="#DejaVuSans-65" transform="translate(164.404297 0)"/>
      <use xlink:href="#DejaVuSans-20" transform="translate(225.927734 0)"/>
      <use xlink:href="#DejaVuSans-73" transform="translate(257.714844 0)"/>
      <use xlink:href="#DejaVuSans-69" transform="translate(309.814453 0)"/>
      <use xlink:href="#DejaVuSans-6e" transform="translate(337.597656 0)"/>
      <use xlink:href="#DejaVuSans-63" transform="translate(400.976562 0)"/>
      <use xlink:href="#DejaVuSans-65" transform="translate(455.957031 0)"/>
      <use xlink:href="#DejaVuSans-20" transform="translate(517.480469 0)"/>
      <use xlink:href="#DejaVuSans-74" transform="translate(549.267578 0)"/>
      <use xlink:href="#DejaVuSans-61" transform="translate(588.476562 0)"/>
      <use xlink:href="#DejaVuSans-73" transform="translate(649.755859 0)"/>
      <use xlink:href="#DejaVuSans-6b" transform="translate(701.855469 0)"/>
      <use xlink:href="#DejaVuSans-20" transform="translate(759.765625 0)"/>
      <use xlink:href="#DejaVuSans-73" transform="translate(791.552734 0)"/>
      <use xlink:href="#DejaVuSans-74" transform="translate(843.652344 0)"/>
      <use xlink:href="#DejaVuSans-61" transform="translate(882.861328 0)"/>
      <use xlink:href="#DejaVuSans-72" transform="translate(944.140625 0)"/>
      <use xlink:href="#DejaVuSans-74" transform="translate(985.253906 0)"/>
      <use xlink:href="#DejaVuSans-20" transform="translate(1024.462891 0)"/>
      <use xlink:href="#DejaVuSans-28" transform="translate(1056.25 0)"/>
      <use xlink:href="#DejaVuSans-73" transform="translate(1095.263672 0)"/>
      <use xlink:href="#DejaVuSans-29" transform="translate(1147.363281 0)"/>
     </g>
    </g>
   </g>
   <g id="matplotlib.axis_2"/>
   <g id="patch_3">
    <path d="M 16.683864 168.688 
L 680.4 168.688 
" style="fill: none; stroke: #000000; stroke-width: 0.8; stroke-linejoin: miter; stroke-linecap: square"/>
   </g>
   <g id="patch_4">
    <path d="M 283.922429 53.228906 
Q 295.545625 53.112266 306.050843 53.006846 
" style="fill: none; stroke: #000000; stroke-linecap: round"/>
    <path d="M 302.432962 51.243061 
L 306.050843 53.006846 
L 302.469086 54.84288 
" style="fill: none; stroke: #000000; stroke-linecap: round"/>
   </g>
   <g id="text_8">
    <!-- $d = B(d) = 5400$ s -->
    <g transform="translate(202.700433 51.805755) scale(0.09 -0.09)">
     <defs>
      <path id="DejaVuSans-Oblique-64" d="M 2675 525 
Q 2444 222 2128 65 
Q 1813 -91 1428 -91 
Q 903 -91 598 267 
Q 294 625 294 1247 
Q 294 1766 478 2236 
Q 663 2706 1013 3078 
Q 1244 3325 1534 3454 
Q 1825 3584 2144 3584 
Q 2481 3584 2739 3421 
Q 2997 3259 3138 2956 
L 3513 4863 
L 4091 4863 
L 3144 0 
L 2566 0 
L 2675 525 
z
M 891 1350 
Q 891 897 1095 644 
Q 1300 391 1663 391 
Q 1931 391 2161 520 
Q 2391 650 2566 903 
Q 2750 1166 2856 1509 
Q 2963 1853 2963 2188 
Q 2963 2622 2758 2865 
Q 2553 3109 2194 3109 
Q 1922 3109 1687 2981 
Q 1453 2853 1288 2613 
Q 1106 2353 998 2009 
Q 891 1666 891 1350 
z
" transform="scale(0.015625)"/>
      <path id="DejaVuSans-3d" d="M 678 2906 
L 4684 2906 
L 4684 2381 
L 678 2381 
L 678 2906 
z
M 678 1631 
L 4684 1631 
L 4684 1100 
L 678 1100 
L 678 1631 
z
" transform="scale(0.015625)"/>
      <path id="DejaVuSans-Oblique-42" d="M 1081 4666 
L 2694 4666 
Q 3350 4666 3675 4422 
Q 4000 4178 4000 3688 
Q 4000 3238 3720 2911 
Q 3441 2584 2988 2516 
Q 3375 2428 3569 2181 
Q 3763 1934 3763 1522 
Q 3763 819 3242 409 
Q 2722 0 1819 0 
L 172 0 
L 1081 4666 
z
M 1234 2228 
L 903 519 
L 1919 519 
Q 2491 519 2800 781 
Q 3109 1044 3109 1522 
Q 3109 1891 2904 2059 
Q 2700 2228 2247 2228 
L 1234 2228 
z
M 1606 4147 
L 1331 2741 
L 2272 2741 
Q 2775 2741 3058 2959 
Q 3341 3178 3341 3566 
Q 3341 3869 3150 4008 
Q 2959 4147 2541 4147 
L 1606 4147 
z
" transform="scale(0.015625)"/>
     </defs>
     <use xlink:href="#DejaVuSans-Oblique-64" transform="translate(0 0.015625)"/>
     <use xlink:href="#DejaVuSans-3d" transform="translate(82.958984 0.015625)"/>
     <use xlink:href="#DejaVuSans-Oblique-42" transform="translate(186.230469 0.015625)"/>
     <use xlink:href="#DejaVuSans-28" transform="translate(254.833984 0.015625)"/>
     <use xlink:href="#DejaVuSans-Oblique-64" transform="translate(293.847656 0.015625)"/>
     <use xlink:href="#DejaVuSans-29" transform="translate(357.324219 0.015625)"/>
     <use xlink:href="#DejaVuSans-3d" transform="translate(415.820312 0.015625)"/>
     <use xlink:href="#DejaVuSans-35" transform="translate(519.091797 0.015625)"/>
     <use xlink:href="#DejaVuSans-34" transform="translate(582.714844 0.015625)"/>
     <use xlink:href="#DejaVuSans-30" transform="translate(646.337891 0.015625)"/>
     <use xlink:href="#DejaVuSans-30" transform="translate(709.960938 0.015625)"/>
     <use xlink:href="#DejaVuSans-20" transform="translate(773.583984 0.015625)"/>
     <use xlink:href="#DejaVuSans-73" transform="translate(805.371094 0.015625)"/>
    </g>
    <!-- (deadline = last available backhaul opportunity) -->
    <g transform="translate(62.230121 61.883786) scale(0.09 -0.09)">
     <defs>
      <path id="DejaVuSans-64" d="M 2906 2969 
L 2906 4863 
L 3481 4863 
L 3481 0 
L 2906 0 
L 2906 525 
Q 2725 213 2448 61 
Q 2172 -91 1784 -91 
Q 1150 -91 751 415 
Q 353 922 353 1747 
Q 353 2572 751 3078 
Q 1150 3584 1784 3584 
Q 2172 3584 2448 3432 
Q 2725 3281 2906 2969 
z
M 947 1747 
Q 947 1113 1208 752 
Q 1469 391 1925 391 
Q 2381 391 2643 752 
Q 2906 1113 2906 1747 
Q 2906 2381 2643 2742 
Q 2381 3103 1925 3103 
Q 1469 3103 1208 2742 
Q 947 2381 947 1747 
z
" transform="scale(0.015625)"/>
      <path id="DejaVuSans-6c" d="M 603 4863 
L 1178 4863 
L 1178 0 
L 603 0 
L 603 4863 
z
" transform="scale(0.015625)"/>
      <path id="DejaVuSans-76" d="M 191 3500 
L 800 3500 
L 1894 563 
L 2988 3500 
L 3597 3500 
L 2284 0 
L 1503 0 
L 191 3500 
z
" transform="scale(0.015625)"/>
      <path id="DejaVuSans-62" d="M 3116 1747 
Q 3116 2381 2855 2742 
Q 2594 3103 2138 3103 
Q 1681 3103 1420 2742 
Q 1159 2381 1159 1747 
Q 1159 1113 1420 752 
Q 1681 391 2138 391 
Q 2594 391 2855 752 
Q 3116 1113 3116 1747 
z
M 1159 2969 
Q 1341 3281 1617 3432 
Q 1894 3584 2278 3584 
Q 2916 3584 3314 3078 
Q 3713 2572 3713 1747 
Q 3713 922 3314 415 
Q 2916 -91 2278 -91 
Q 1894 -91 1617 61 
Q 1341 213 1159 525 
L 1159 0 
L 581 0 
L 581 4863 
L 1159 4863 
L 1159 2969 
z
" transform="scale(0.015625)"/>
      <path id="DejaVuSans-68" d="M 3513 2113 
L 3513 0 
L 2938 0 
L 2938 2094 
Q 2938 2591 2744 2837 
Q 2550 3084 2163 3084 
Q 1697 3084 1428 2787 
Q 1159 2491 1159 1978 
L 1159 0 
L 581 0 
L 581 4863 
L 1159 4863 
L 1159 2956 
Q 1366 3272 1645 3428 
Q 1925 3584 2291 3584 
Q 2894 3584 3203 3211 
Q 3513 2838 3513 2113 
z
" transform="scale(0.015625)"/>
      <path id="DejaVuSans-75" d="M 544 1381 
L 544 3500 
L 1119 3500 
L 1119 1403 
Q 1119 906 1312 657 
Q 1506 409 1894 409 
Q 2359 409 2629 706 
Q 2900 1003 2900 1516 
L 2900 3500 
L 3475 3500 
L 3475 0 
L 2900 0 
L 2900 538 
Q 2691 219 2414 64 
Q 2138 -91 1772 -91 
Q 1169 -91 856 284 
Q 544 659 544 1381 
z
M 1991 3584 
L 1991 3584 
z
" transform="scale(0.015625)"/>
      <path id="DejaVuSans-6f" d="M 1959 3097 
Q 1497 3097 1228 2736 
Q 959 2375 959 1747 
Q 959 1119 1226 758 
Q 1494 397 1959 397 
Q 2419 397 2687 759 
Q 2956 1122 2956 1747 
Q 2956 2369 2687 2733 
Q 2419 3097 1959 3097 
z
M 1959 3584 
Q 2709 3584 3137 3096 
Q 3566 2609 3566 1747 
Q 3566 888 3137 398 
Q 2709 -91 1959 -91 
Q 1206 -91 779 398 
Q 353 888 353 1747 
Q 353 2609 779 3096 
Q 1206 3584 1959 3584 
z
" transform="scale(0.015625)"/>
      <path id="DejaVuSans-70" d="M 1159 525 
L 1159 -1331 
L 581 -1331 
L 581 3500 
L 1159 3500 
L 1159 2969 
Q 1341 3281 1617 3432 
Q 1894 3584 2278 3584 
Q 2916 3584 3314 3078 
Q 3713 2572 3713 1747 
Q 3713 922 3314 415 
Q 2916 -91 2278 -91 
Q 1894 -91 1617 61 
Q 1341 213 1159 525 
z
M 3116 1747 
Q 3116 2381 2855 2742 
Q 2594 3103 2138 3103 
Q 1681 3103 1420 2742 
Q 1159 2381 1159 1747 
Q 1159 1113 1420 752 
Q 1681 391 2138 391 
Q 2594 391 2855 752 
Q 3116 1113 3116 1747 
z
" transform="scale(0.015625)"/>
      <path id="DejaVuSans-79" d="M 2059 -325 
Q 1816 -950 1584 -1140 
Q 1353 -1331 966 -1331 
L 506 -1331 
L 506 -850 
L 844 -850 
Q 1081 -850 1212 -737 
Q 1344 -625 1503 -206 
L 1606 56 
L 191 3500 
L 800 3500 
L 1894 763 
L 2988 3500 
L 3597 3500 
L 2059 -325 
z
" transform="scale(0.015625)"/>
     </defs>
     <use xlink:href="#DejaVuSans-28"/>
     <use xlink:href="#DejaVuSans-64" transform="translate(39.013672 0)"/>
     <use xlink:href="#DejaVuSans-65" transform="translate(102.490234 0)"/>
     <use xlink:href="#DejaVuSans-61" transform="translate(164.013672 0)"/>
     <use xlink:href="#DejaVuSans-64" transform="translate(225.292969 0)"/>
     <use xlink:href="#DejaVuSans-6c" transform="translate(288.769531 0)"/>
     <use xlink:href="#DejaVuSans-69" transform="translate(316.552734 0)"/>
     <use xlink:href="#DejaVuSans-6e" transform="translate(344.335938 0)"/>
     <use xlink:href="#DejaVuSans-65" transform="translate(407.714844 0)"/>
     <use xlink:href="#DejaVuSans-20" transform="translate(469.238281 0)"/>
     <use xlink:href="#DejaVuSans-3d" transform="translate(501.025391 0)"/>
     <use xlink:href="#DejaVuSans-20" transform="translate(584.814453 0)"/>
     <use xlink:href="#DejaVuSans-6c" transform="translate(616.601562 0)"/>
     <use xlink:href="#DejaVuSans-61" transform="translate(644.384766 0)"/>
     <use xlink:href="#DejaVuSans-73" transform="translate(705.664062 0)"/>
     <use xlink:href="#DejaVuSans-74" transform="translate(757.763672 0)"/>
     <use xlink:href="#DejaVuSans-20" transform="translate(796.972656 0)"/>
     <use xlink:href="#DejaVuSans-61" transform="translate(828.759766 0)"/>
     <use xlink:href="#DejaVuSans-76" transform="translate(890.039062 0)"/>
     <use xlink:href="#DejaVuSans-61" transform="translate(949.21875 0)"/>
     <use xlink:href="#DejaVuSans-69" transform="translate(1010.498047 0)"/>
     <use xlink:href="#DejaVuSans-6c" transform="translate(1038.28125 0)"/>
     <use xlink:href="#DejaVuSans-61" transform="translate(1066.064453 0)"/>
     <use xlink:href="#DejaVuSans-62" transform="translate(1127.34375 0)"/>
     <use xlink:href="#DejaVuSans-6c" transform="translate(1190.820312 0)"/>
     <use xlink:href="#DejaVuSans-65" transform="translate(1218.603516 0)"/>
     <use xlink:href="#DejaVuSans-20" transform="translate(1280.126953 0)"/>
     <use xlink:href="#DejaVuSans-62" transform="translate(1311.914062 0)"/>
     <use xlink:href="#DejaVuSans-61" transform="translate(1375.390625 0)"/>
     <use xlink:href="#DejaVuSans-63" transform="translate(1436.669922 0)"/>
     <use xlink:href="#DejaVuSans-6b" transform="translate(1491.650391 0)"/>
     <use xlink:href="#DejaVuSans-68" transform="translate(1549.560547 0)"/>
     <use xlink:href="#DejaVuSans-61" transform="translate(1612.939453 0)"/>
     <use xlink:href="#DejaVuSans-75" transform="translate(1674.21875 0)"/>
     <use xlink:href="#DejaVuSans-6c" transform="translate(1737.597656 0)"/>
     <use xlink:href="#DejaVuSans-20" transform="translate(1765.380859 0)"/>
     <use xlink:href="#DejaVuSans-6f" transform="translate(1797.167969 0)"/>
     <use xlink:href="#DejaVuSans-70" transform="translate(1858.349609 0)"/>
     <use xlink:href="#DejaVuSans-70" transform="translate(1921.826172 0)"/>
     <use xlink:href="#DejaVuSans-6f" transform="translate(1985.302734 0)"/>
     <use xlink:href="#DejaVuSans-72" transform="translate(2046.484375 0)"/>
     <use xlink:href="#DejaVuSans-74" transform="translate(2087.597656 0)"/>
     <use xlink:href="#DejaVuSans-75" transform="translate(2126.806641 0)"/>
     <use xlink:href="#DejaVuSans-6e" transform="translate(2190.185547 0)"/>
     <use xlink:href="#DejaVuSans-69" transform="translate(2253.564453 0)"/>
     <use xlink:href="#DejaVuSans-74" transform="translate(2281.347656 0)"/>
     <use xlink:href="#DejaVuSans-79" transform="translate(2320.556641 0)"/>
     <use xlink:href="#DejaVuSans-29" transform="translate(2379.736328 0)"/>
    </g>
   </g>
   <g id="line2d_8">
    <path d="M 140.427551 92.470222 
L 309.168941 92.470222 
" clip-path="url(#pb0ebe4f41f)" style="fill: none; stroke: #1e8449; stroke-opacity: 0.85; stroke-width: 9"/>
   </g>
   <g id="text_9">
    <!-- $h^* = 3900$ s -->
    <g style="fill: #1e8449" transform="translate(108.507551 82.769778) scale(0.105 -0.105)">
     <defs>
      <path id="DejaVuSans-Oblique-68" d="M 3566 2113 
L 3156 0 
L 2578 0 
L 2988 2091 
Q 3016 2238 3031 2350 
Q 3047 2463 3047 2528 
Q 3047 2791 2881 2937 
Q 2716 3084 2419 3084 
Q 1956 3084 1617 2771 
Q 1278 2459 1178 1941 
L 800 0 
L 225 0 
L 1172 4863 
L 1747 4863 
L 1375 2950 
Q 1594 3244 1934 3414 
Q 2275 3584 2650 3584 
Q 3113 3584 3367 3334 
Q 3622 3084 3622 2631 
Q 3622 2519 3608 2391 
Q 3594 2263 3566 2113 
z
" transform="scale(0.015625)"/>
      <path id="DejaVuSans-2a" d="M 3009 3897 
L 1888 3291 
L 3009 2681 
L 2828 2375 
L 1778 3009 
L 1778 1831 
L 1422 1831 
L 1422 3009 
L 372 2375 
L 191 2681 
L 1313 3291 
L 191 3897 
L 372 4206 
L 1422 3572 
L 1422 4750 
L 1778 4750 
L 1778 3572 
L 2828 4206 
L 3009 3897 
z
" transform="scale(0.015625)"/>
      <path id="DejaVuSans-39" d="M 703 97 
L 703 672 
Q 941 559 1184 500 
Q 1428 441 1663 441 
Q 2288 441 2617 861 
Q 2947 1281 2994 2138 
Q 2813 1869 2534 1725 
Q 2256 1581 1919 1581 
Q 1219 1581 811 2004 
Q 403 2428 403 3163 
Q 403 3881 828 4315 
Q 1253 4750 1959 4750 
Q 2769 4750 3195 4129 
Q 3622 3509 3622 2328 
Q 3622 1225 3098 567 
Q 2575 -91 1691 -91 
Q 1453 -91 1209 -44 
Q 966 3 703 97 
z
M 1959 2075 
Q 2384 2075 2632 2365 
Q 2881 2656 2881 3163 
Q 2881 3666 2632 3958 
Q 2384 4250 1959 4250 
Q 1534 4250 1286 3958 
Q 1038 3666 1038 3163 
Q 1038 2656 1286 2365 
Q 1534 2075 1959 2075 
z
" transform="scale(0.015625)"/>
      <path id="DejaVuSans-Bold-20" transform="scale(0.015625)"/>
      <path id="DejaVuSans-Bold-73" d="M 3272 3391 
L 3272 2541 
Q 2913 2691 2578 2766 
Q 2244 2841 1947 2841 
Q 1628 2841 1473 2761 
Q 1319 2681 1319 2516 
Q 1319 2381 1436 2309 
Q 1553 2238 1856 2203 
L 2053 2175 
Q 2913 2066 3209 1816 
Q 3506 1566 3506 1031 
Q 3506 472 3093 190 
Q 2681 -91 1863 -91 
Q 1516 -91 1145 -36 
Q 775 19 384 128 
L 384 978 
Q 719 816 1070 734 
Q 1422 653 1784 653 
Q 2113 653 2278 743 
Q 2444 834 2444 1013 
Q 2444 1163 2330 1236 
Q 2216 1309 1875 1350 
L 1678 1375 
Q 931 1469 631 1722 
Q 331 1975 331 2491 
Q 331 3047 712 3315 
Q 1094 3584 1881 3584 
Q 2191 3584 2531 3537 
Q 2872 3491 3272 3391 
z
" transform="scale(0.015625)"/>
     </defs>
     <use xlink:href="#DejaVuSans-Oblique-68" transform="translate(0 0.765625)"/>
     <use xlink:href="#DejaVuSans-2a" transform="translate(84.46431 39.046875) scale(0.7)"/>
     <use xlink:href="#DejaVuSans-3d" transform="translate(155.318802 0.765625)"/>
     <use xlink:href="#DejaVuSans-33" transform="translate(258.590286 0.765625)"/>
     <use xlink:href="#DejaVuSans-39" transform="translate(322.213333 0.765625)"/>
     <use xlink:href="#DejaVuSans-30" transform="translate(385.83638 0.765625)"/>
     <use xlink:href="#DejaVuSans-30" transform="translate(449.459427 0.765625)"/>
     <use xlink:href="#DejaVuSans-Bold-20" transform="translate(513.082474 0.765625)"/>
     <use xlink:href="#DejaVuSans-Bold-73" transform="translate(547.896927 0.765625)"/>
    </g>
   </g>
   <g id="text_10">
    <!-- margin +1500 s   delivered -->
    <g style="fill: #1e8449" transform="translate(327.168023 95.32655) scale(0.105 -0.105)">
     <defs>
      <path id="DejaVuSans-Bold-6d" d="M 3781 2919 
Q 3994 3244 4286 3414 
Q 4578 3584 4928 3584 
Q 5531 3584 5847 3212 
Q 6163 2841 6163 2131 
L 6163 0 
L 5038 0 
L 5038 1825 
Q 5041 1866 5042 1909 
Q 5044 1953 5044 2034 
Q 5044 2406 4934 2573 
Q 4825 2741 4581 2741 
Q 4263 2741 4089 2478 
Q 3916 2216 3909 1719 
L 3909 0 
L 2784 0 
L 2784 1825 
Q 2784 2406 2684 2573 
Q 2584 2741 2328 2741 
Q 2006 2741 1831 2477 
Q 1656 2213 1656 1722 
L 1656 0 
L 531 0 
L 531 3500 
L 1656 3500 
L 1656 2988 
Q 1863 3284 2130 3434 
Q 2397 3584 2719 3584 
Q 3081 3584 3359 3409 
Q 3638 3234 3781 2919 
z
" transform="scale(0.015625)"/>
      <path id="DejaVuSans-Bold-61" d="M 2106 1575 
Q 1756 1575 1579 1456 
Q 1403 1338 1403 1106 
Q 1403 894 1545 773 
Q 1688 653 1941 653 
Q 2256 653 2472 879 
Q 2688 1106 2688 1447 
L 2688 1575 
L 2106 1575 
z
M 3816 1997 
L 3816 0 
L 2688 0 
L 2688 519 
Q 2463 200 2181 54 
Q 1900 -91 1497 -91 
Q 953 -91 614 226 
Q 275 544 275 1050 
Q 275 1666 698 1953 
Q 1122 2241 2028 2241 
L 2688 2241 
L 2688 2328 
Q 2688 2594 2478 2717 
Q 2269 2841 1825 2841 
Q 1466 2841 1156 2769 
Q 847 2697 581 2553 
L 581 3406 
Q 941 3494 1303 3539 
Q 1666 3584 2028 3584 
Q 2975 3584 3395 3211 
Q 3816 2838 3816 1997 
z
" transform="scale(0.015625)"/>
      <path id="DejaVuSans-Bold-72" d="M 3138 2547 
Q 2991 2616 2845 2648 
Q 2700 2681 2553 2681 
Q 2122 2681 1889 2404 
Q 1656 2128 1656 1613 
L 1656 0 
L 538 0 
L 538 3500 
L 1656 3500 
L 1656 2925 
Q 1872 3269 2151 3426 
Q 2431 3584 2822 3584 
Q 2878 3584 2943 3579 
Q 3009 3575 3134 3559 
L 3138 2547 
z
" transform="scale(0.015625)"/>
      <path id="DejaVuSans-Bold-67" d="M 2919 594 
Q 2688 288 2409 144 
Q 2131 0 1766 0 
Q 1125 0 706 504 
Q 288 1009 288 1791 
Q 288 2575 706 3076 
Q 1125 3578 1766 3578 
Q 2131 3578 2409 3434 
Q 2688 3291 2919 2981 
L 2919 3500 
L 4044 3500 
L 4044 353 
Q 4044 -491 3511 -936 
Q 2978 -1381 1966 -1381 
Q 1638 -1381 1331 -1331 
Q 1025 -1281 716 -1178 
L 716 -306 
Q 1009 -475 1290 -558 
Q 1572 -641 1856 -641 
Q 2406 -641 2662 -400 
Q 2919 -159 2919 353 
L 2919 594 
z
M 2181 2772 
Q 1834 2772 1640 2515 
Q 1447 2259 1447 1791 
Q 1447 1309 1634 1061 
Q 1822 813 2181 813 
Q 2531 813 2725 1069 
Q 2919 1325 2919 1791 
Q 2919 2259 2725 2515 
Q 2531 2772 2181 2772 
z
" transform="scale(0.015625)"/>
      <path id="DejaVuSans-Bold-69" d="M 538 3500 
L 1656 3500 
L 1656 0 
L 538 0 
L 538 3500 
z
M 538 4863 
L 1656 4863 
L 1656 3950 
L 538 3950 
L 538 4863 
z
" transform="scale(0.015625)"/>
      <path id="DejaVuSans-Bold-6e" d="M 4056 2131 
L 4056 0 
L 2931 0 
L 2931 347 
L 2931 1631 
Q 2931 2084 2911 2256 
Q 2891 2428 2841 2509 
Q 2775 2619 2662 2680 
Q 2550 2741 2406 2741 
Q 2056 2741 1856 2470 
Q 1656 2200 1656 1722 
L 1656 0 
L 538 0 
L 538 3500 
L 1656 3500 
L 1656 2988 
Q 1909 3294 2193 3439 
Q 2478 3584 2822 3584 
Q 3428 3584 3742 3212 
Q 4056 2841 4056 2131 
z
" transform="scale(0.015625)"/>
      <path id="DejaVuSans-Bold-2b" d="M 3053 4013 
L 3053 2375 
L 4684 2375 
L 4684 1638 
L 3053 1638 
L 3053 0 
L 2309 0 
L 2309 1638 
L 678 1638 
L 678 2375 
L 2309 2375 
L 2309 4013 
L 3053 4013 
z
" transform="scale(0.015625)"/>
      <path id="DejaVuSans-Bold-31" d="M 750 831 
L 1813 831 
L 1813 3847 
L 722 3622 
L 722 4441 
L 1806 4666 
L 2950 4666 
L 2950 831 
L 4013 831 
L 4013 0 
L 750 0 
L 750 831 
z
" transform="scale(0.015625)"/>
      <path id="DejaVuSans-Bold-35" d="M 678 4666 
L 3669 4666 
L 3669 3781 
L 1638 3781 
L 1638 3059 
Q 1775 3097 1914 3117 
Q 2053 3138 2203 3138 
Q 3056 3138 3531 2711 
Q 4006 2284 4006 1522 
Q 4006 766 3489 337 
Q 2972 -91 2053 -91 
Q 1656 -91 1267 -14 
Q 878 63 494 219 
L 494 1166 
Q 875 947 1217 837 
Q 1559 728 1863 728 
Q 2300 728 2551 942 
Q 2803 1156 2803 1522 
Q 2803 1891 2551 2103 
Q 2300 2316 1863 2316 
Q 1603 2316 1309 2248 
Q 1016 2181 678 2041 
L 678 4666 
z
" transform="scale(0.015625)"/>
      <path id="DejaVuSans-Bold-30" d="M 2944 2338 
Q 2944 3213 2780 3570 
Q 2616 3928 2228 3928 
Q 1841 3928 1675 3570 
Q 1509 3213 1509 2338 
Q 1509 1453 1675 1090 
Q 1841 728 2228 728 
Q 2613 728 2778 1090 
Q 2944 1453 2944 2338 
z
M 4147 2328 
Q 4147 1169 3647 539 
Q 3147 -91 2228 -91 
Q 1306 -91 806 539 
Q 306 1169 306 2328 
Q 306 3491 806 4120 
Q 1306 4750 2228 4750 
Q 3147 4750 3647 4120 
Q 4147 3491 4147 2328 
z
" transform="scale(0.015625)"/>
      <path id="DejaVuSans-Bold-64" d="M 2919 2988 
L 2919 4863 
L 4044 4863 
L 4044 0 
L 2919 0 
L 2919 506 
Q 2688 197 2409 53 
Q 2131 -91 1766 -91 
Q 1119 -91 703 423 
Q 288 938 288 1747 
Q 288 2556 703 3070 
Q 1119 3584 1766 3584 
Q 2128 3584 2408 3439 
Q 2688 3294 2919 2988 
z
M 2181 722 
Q 2541 722 2730 984 
Q 2919 1247 2919 1747 
Q 2919 2247 2730 2509 
Q 2541 2772 2181 2772 
Q 1825 2772 1636 2509 
Q 1447 2247 1447 1747 
Q 1447 1247 1636 984 
Q 1825 722 2181 722 
z
" transform="scale(0.015625)"/>
      <path id="DejaVuSans-Bold-65" d="M 4031 1759 
L 4031 1441 
L 1416 1441 
Q 1456 1047 1700 850 
Q 1944 653 2381 653 
Q 2734 653 3104 758 
Q 3475 863 3866 1075 
L 3866 213 
Q 3469 63 3072 -14 
Q 2675 -91 2278 -91 
Q 1328 -91 801 392 
Q 275 875 275 1747 
Q 275 2603 792 3093 
Q 1309 3584 2216 3584 
Q 3041 3584 3536 3087 
Q 4031 2591 4031 1759 
z
M 2881 2131 
Q 2881 2450 2695 2645 
Q 2509 2841 2209 2841 
Q 1884 2841 1681 2658 
Q 1478 2475 1428 2131 
L 2881 2131 
z
" transform="scale(0.015625)"/>
      <path id="DejaVuSans-Bold-6c" d="M 538 4863 
L 1656 4863 
L 1656 0 
L 538 0 
L 538 4863 
z
" transform="scale(0.015625)"/>
      <path id="DejaVuSans-Bold-76" d="M 97 3500 
L 1216 3500 
L 2088 1081 
L 2956 3500 
L 4078 3500 
L 2700 0 
L 1472 0 
L 97 3500 
z
" transform="scale(0.015625)"/>
     </defs>
     <use xlink:href="#DejaVuSans-Bold-6d"/>
     <use xlink:href="#DejaVuSans-Bold-61" transform="translate(104.199219 0)"/>
     <use xlink:href="#DejaVuSans-Bold-72" transform="translate(171.679688 0)"/>
     <use xlink:href="#DejaVuSans-Bold-67" transform="translate(220.996094 0)"/>
     <use xlink:href="#DejaVuSans-Bold-69" transform="translate(292.578125 0)"/>
     <use xlink:href="#DejaVuSans-Bold-6e" transform="translate(326.855469 0)"/>
     <use xlink:href="#DejaVuSans-Bold-20" transform="translate(398.046875 0)"/>
     <use xlink:href="#DejaVuSans-Bold-2b" transform="translate(432.861328 0)"/>
     <use xlink:href="#DejaVuSans-Bold-31" transform="translate(516.650391 0)"/>
     <use xlink:href="#DejaVuSans-Bold-35" transform="translate(586.230469 0)"/>
     <use xlink:href="#DejaVuSans-Bold-30" transform="translate(655.810547 0)"/>
     <use xlink:href="#DejaVuSans-Bold-30" transform="translate(725.390625 0)"/>
     <use xlink:href="#DejaVuSans-Bold-20" transform="translate(794.970703 0)"/>
     <use xlink:href="#DejaVuSans-Bold-73" transform="translate(829.785156 0)"/>
     <use xlink:href="#DejaVuSans-Bold-20" transform="translate(889.306641 0)"/>
     <use xlink:href="#DejaVuSans-Bold-20" transform="translate(924.121094 0)"/>
     <use xlink:href="#DejaVuSans-Bold-20" transform="translate(958.935547 0)"/>
     <use xlink:href="#DejaVuSans-Bold-64" transform="translate(993.75 0)"/>
     <use xlink:href="#DejaVuSans-Bold-65" transform="translate(1065.332031 0)"/>
     <use xlink:href="#DejaVuSans-Bold-6c" transform="translate(1133.154297 0)"/>
     <use xlink:href="#DejaVuSans-Bold-69" transform="translate(1167.431641 0)"/>
     <use xlink:href="#DejaVuSans-Bold-76" transform="translate(1201.708984 0)"/>
     <use xlink:href="#DejaVuSans-Bold-65" transform="translate(1266.894531 0)"/>
     <use xlink:href="#DejaVuSans-Bold-72" transform="translate(1334.716797 0)"/>
     <use xlink:href="#DejaVuSans-Bold-65" transform="translate(1384.033203 0)"/>
     <use xlink:href="#DejaVuSans-Bold-64" transform="translate(1451.855469 0)"/>
    </g>
   </g>
   <g id="text_11">
    <!-- fixed300 -->
    <g transform="translate(21.183635 89.625378) scale(0.1 -0.1)">
     <defs>
      <path id="DejaVuSansMono-66" d="M 3322 4863 
L 3322 4384 
L 2669 4384 
Q 2359 4384 2239 4257 
Q 2119 4131 2119 3809 
L 2119 3500 
L 3322 3500 
L 3322 3053 
L 2119 3053 
L 2119 0 
L 1544 0 
L 1544 3053 
L 609 3053 
L 609 3500 
L 1544 3500 
L 1544 3744 
Q 1544 4319 1808 4591 
Q 2072 4863 2631 4863 
L 3322 4863 
z
" transform="scale(0.015625)"/>
      <path id="DejaVuSansMono-69" d="M 800 3500 
L 2272 3500 
L 2272 447 
L 3413 447 
L 3413 0 
L 556 0 
L 556 447 
L 1697 447 
L 1697 3053 
L 800 3053 
L 800 3500 
z
M 1697 4863 
L 2272 4863 
L 2272 4134 
L 1697 4134 
L 1697 4863 
z
" transform="scale(0.015625)"/>
      <path id="DejaVuSansMono-78" d="M 3494 3500 
L 2241 1825 
L 3616 0 
L 2950 0 
L 1925 1403 
L 903 0 
L 238 0 
L 1613 1825 
L 359 3500 
L 997 3500 
L 1925 2234 
L 2847 3500 
L 3494 3500 
z
" transform="scale(0.015625)"/>
      <path id="DejaVuSansMono-65" d="M 3475 1894 
L 3475 1613 
L 984 1613 
L 984 1594 
Q 984 1022 1282 709 
Q 1581 397 2125 397 
Q 2400 397 2700 484 
Q 3000 572 3341 750 
L 3341 178 
Q 3013 44 2708 -23 
Q 2403 -91 2119 -91 
Q 1303 -91 843 398 
Q 384 888 384 1747 
Q 384 2584 834 3084 
Q 1284 3584 2034 3584 
Q 2703 3584 3089 3131 
Q 3475 2678 3475 1894 
z
M 2900 2063 
Q 2888 2569 2661 2833 
Q 2434 3097 2009 3097 
Q 1594 3097 1325 2822 
Q 1056 2547 1006 2059 
L 2900 2063 
z
" transform="scale(0.015625)"/>
      <path id="DejaVuSansMono-64" d="M 2681 3053 
L 2681 4863 
L 3256 4863 
L 3256 0 
L 2681 0 
L 2681 441 
Q 2538 181 2298 45 
Q 2059 -91 1747 -91 
Q 1113 -91 748 401 
Q 384 894 384 1759 
Q 384 2613 750 3098 
Q 1116 3584 1747 3584 
Q 2063 3584 2303 3448 
Q 2544 3313 2681 3053 
z
M 991 1747 
Q 991 1078 1203 737 
Q 1416 397 1831 397 
Q 2247 397 2464 740 
Q 2681 1084 2681 1747 
Q 2681 2413 2464 2755 
Q 2247 3097 1831 3097 
Q 1416 3097 1203 2756 
Q 991 2416 991 1747 
z
" transform="scale(0.015625)"/>
      <path id="DejaVuSansMono-33" d="M 2425 2497 
Q 2884 2375 3128 2064 
Q 3372 1753 3372 1288 
Q 3372 644 2939 276 
Q 2506 -91 1741 -91 
Q 1419 -91 1084 -31 
Q 750 28 428 141 
L 428 769 
Q 747 603 1056 522 
Q 1366 441 1672 441 
Q 2191 441 2469 675 
Q 2747 909 2747 1350 
Q 2747 1756 2469 1995 
Q 2191 2234 1716 2234 
L 1234 2234 
L 1234 2753 
L 1716 2753 
Q 2150 2753 2394 2943 
Q 2638 3134 2638 3475 
Q 2638 3834 2411 4026 
Q 2184 4219 1766 4219 
Q 1488 4219 1191 4156 
Q 894 4094 569 3969 
L 569 4550 
Q 947 4650 1242 4700 
Q 1538 4750 1766 4750 
Q 2447 4750 2855 4408 
Q 3263 4066 3263 3500 
Q 3263 3116 3048 2859 
Q 2834 2603 2425 2497 
z
" transform="scale(0.015625)"/>
      <path id="DejaVuSansMono-30" d="M 1509 2344 
Q 1509 2516 1629 2641 
Q 1750 2766 1919 2766 
Q 2094 2766 2219 2641 
Q 2344 2516 2344 2344 
Q 2344 2169 2220 2047 
Q 2097 1925 1919 1925 
Q 1744 1925 1626 2044 
Q 1509 2163 1509 2344 
z
M 1925 4250 
Q 1484 4250 1267 3775 
Q 1050 3300 1050 2328 
Q 1050 1359 1267 884 
Q 1484 409 1925 409 
Q 2369 409 2586 884 
Q 2803 1359 2803 2328 
Q 2803 3300 2586 3775 
Q 2369 4250 1925 4250 
z
M 1925 4750 
Q 2672 4750 3055 4137 
Q 3438 3525 3438 2328 
Q 3438 1134 3055 521 
Q 2672 -91 1925 -91 
Q 1178 -91 797 521 
Q 416 1134 416 2328 
Q 416 3525 797 4137 
Q 1178 4750 1925 4750 
z
" transform="scale(0.015625)"/>
     </defs>
     <use xlink:href="#DejaVuSansMono-66"/>
     <use xlink:href="#DejaVuSansMono-69" transform="translate(60.205078 0)"/>
     <use xlink:href="#DejaVuSansMono-78" transform="translate(120.410156 0)"/>
     <use xlink:href="#DejaVuSansMono-65" transform="translate(180.615234 0)"/>
     <use xlink:href="#DejaVuSansMono-64" transform="translate(240.820312 0)"/>
     <use xlink:href="#DejaVuSansMono-33" transform="translate(301.025391 0)"/>
     <use xlink:href="#DejaVuSansMono-30" transform="translate(361.230469 0)"/>
     <use xlink:href="#DejaVuSansMono-30" transform="translate(421.435547 0)"/>
    </g>
    <!-- $n_{\rm heard}$ = 2 -->
    <g transform="translate(21.183635 100.886941) scale(0.1 -0.1)">
     <defs>
      <path id="DejaVuSans-Oblique-6e" d="M 3566 2113 
L 3156 0 
L 2578 0 
L 2988 2091 
Q 3016 2238 3031 2350 
Q 3047 2463 3047 2528 
Q 3047 2791 2881 2937 
Q 2716 3084 2419 3084 
Q 1956 3084 1622 2776 
Q 1288 2469 1184 1941 
L 800 0 
L 225 0 
L 903 3500 
L 1478 3500 
L 1363 2950 
Q 1603 3253 1940 3418 
Q 2278 3584 2650 3584 
Q 3113 3584 3367 3334 
Q 3622 3084 3622 2631 
Q 3622 2519 3608 2391 
Q 3594 2263 3566 2113 
z
" transform="scale(0.015625)"/>
      <path id="DejaVuSansMono-20" transform="scale(0.015625)"/>
      <path id="DejaVuSansMono-3d" d="M 275 1638 
L 3578 1638 
L 3578 1100 
L 275 1100 
L 275 1638 
z
M 275 2906 
L 3578 2906 
L 3578 2375 
L 275 2375 
L 275 2906 
z
" transform="scale(0.015625)"/>
      <path id="DejaVuSansMono-32" d="M 1166 531 
L 3309 531 
L 3309 0 
L 475 0 
L 475 531 
Q 1059 1147 1496 1619 
Q 1934 2091 2100 2284 
Q 2413 2666 2522 2902 
Q 2631 3138 2631 3384 
Q 2631 3775 2401 3997 
Q 2172 4219 1772 4219 
Q 1488 4219 1175 4116 
Q 863 4013 513 3803 
L 513 4441 
Q 834 4594 1145 4672 
Q 1456 4750 1759 4750 
Q 2444 4750 2861 4386 
Q 3278 4022 3278 3431 
Q 3278 3131 3139 2831 
Q 3000 2531 2688 2169 
Q 2513 1966 2180 1606 
Q 1847 1247 1166 531 
z
" transform="scale(0.015625)"/>
     </defs>
     <use xlink:href="#DejaVuSans-Oblique-6e" transform="translate(0 0.78125)"/>
     <use xlink:href="#DejaVuSans-68" transform="translate(63.378906 -15.625) scale(0.7)"/>
     <use xlink:href="#DejaVuSans-65" transform="translate(107.744141 -15.625) scale(0.7)"/>
     <use xlink:href="#DejaVuSans-61" transform="translate(150.810547 -15.625) scale(0.7)"/>
     <use xlink:href="#DejaVuSans-72" transform="translate(193.706055 -15.625) scale(0.7)"/>
     <use xlink:href="#DejaVuSans-64" transform="translate(222.485352 -15.625) scale(0.7)"/>
     <use xlink:href="#DejaVuSansMono-20" transform="translate(269.65332 0.78125)"/>
     <use xlink:href="#DejaVuSansMono-3d" transform="translate(329.858398 0.78125)"/>
     <use xlink:href="#DejaVuSansMono-20" transform="translate(390.063477 0.78125)"/>
     <use xlink:href="#DejaVuSansMono-32" transform="translate(450.268555 0.78125)"/>
    </g>
   </g>
   <g id="line2d_9">
    <path d="M 410.413775 144.436889 
L 410.413775 144.436889 
" clip-path="url(#pb0ebe4f41f)" style="fill: none; stroke: #c0392b; stroke-opacity: 0.85; stroke-width: 9"/>
   </g>
   <g id="text_12">
    <!-- $h^* = 6300$ s -->
    <g style="fill: #c0392b" transform="translate(378.493775 134.736444) scale(0.105 -0.105)">
     <use xlink:href="#DejaVuSans-Oblique-68" transform="translate(0 0.765625)"/>
     <use xlink:href="#DejaVuSans-2a" transform="translate(84.46431 39.046875) scale(0.7)"/>
     <use xlink:href="#DejaVuSans-3d" transform="translate(155.318802 0.765625)"/>
     <use xlink:href="#DejaVuSans-36" transform="translate(258.590286 0.765625)"/>
     <use xlink:href="#DejaVuSans-33" transform="translate(322.213333 0.765625)"/>
     <use xlink:href="#DejaVuSans-30" transform="translate(385.83638 0.765625)"/>
     <use xlink:href="#DejaVuSans-30" transform="translate(449.459427 0.765625)"/>
     <use xlink:href="#DejaVuSans-Bold-20" transform="translate(513.082474 0.765625)"/>
     <use xlink:href="#DejaVuSans-Bold-73" transform="translate(547.896927 0.765625)"/>
    </g>
   </g>
   <g id="text_13">
    <!-- margin -900 s   missed -->
    <g style="fill: #c0392b" transform="translate(437.412398 147.293217) scale(0.105 -0.105)">
     <defs>
      <path id="DejaVuSans-Bold-2d" d="M 347 2297 
L 2309 2297 
L 2309 1388 
L 347 1388 
L 347 2297 
z
" transform="scale(0.015625)"/>
      <path id="DejaVuSans-Bold-39" d="M 641 103 
L 641 966 
Q 928 831 1190 764 
Q 1453 697 1709 697 
Q 2247 697 2547 995 
Q 2847 1294 2900 1881 
Q 2688 1725 2447 1647 
Q 2206 1569 1925 1569 
Q 1209 1569 770 1986 
Q 331 2403 331 3084 
Q 331 3838 820 4291 
Q 1309 4744 2131 4744 
Q 3044 4744 3544 4128 
Q 4044 3513 4044 2388 
Q 4044 1231 3459 570 
Q 2875 -91 1856 -91 
Q 1528 -91 1228 -42 
Q 928 6 641 103 
z
M 2125 2350 
Q 2441 2350 2600 2554 
Q 2759 2759 2759 3169 
Q 2759 3575 2600 3781 
Q 2441 3988 2125 3988 
Q 1809 3988 1650 3781 
Q 1491 3575 1491 3169 
Q 1491 2759 1650 2554 
Q 1809 2350 2125 2350 
z
" transform="scale(0.015625)"/>
     </defs>
     <use xlink:href="#DejaVuSans-Bold-6d"/>
     <use xlink:href="#DejaVuSans-Bold-61" transform="translate(104.199219 0)"/>
     <use xlink:href="#DejaVuSans-Bold-72" transform="translate(171.679688 0)"/>
     <use xlink:href="#DejaVuSans-Bold-67" transform="translate(220.996094 0)"/>
     <use xlink:href="#DejaVuSans-Bold-69" transform="translate(292.578125 0)"/>
     <use xlink:href="#DejaVuSans-Bold-6e" transform="translate(326.855469 0)"/>
     <use xlink:href="#DejaVuSans-Bold-20" transform="translate(398.046875 0)"/>
     <use xlink:href="#DejaVuSans-Bold-2d" transform="translate(432.861328 0)"/>
     <use xlink:href="#DejaVuSans-Bold-39" transform="translate(474.365234 0)"/>
     <use xlink:href="#DejaVuSans-Bold-30" transform="translate(543.945312 0)"/>
     <use xlink:href="#DejaVuSans-Bold-30" transform="translate(613.525391 0)"/>
     <use xlink:href="#DejaVuSans-Bold-20" transform="translate(683.105469 0)"/>
     <use xlink:href="#DejaVuSans-Bold-73" transform="translate(717.919922 0)"/>
     <use xlink:href="#DejaVuSans-Bold-20" transform="translate(777.441406 0)"/>
     <use xlink:href="#DejaVuSans-Bold-20" transform="translate(812.255859 0)"/>
     <use xlink:href="#DejaVuSans-Bold-20" transform="translate(847.070312 0)"/>
     <use xlink:href="#DejaVuSans-Bold-6d" transform="translate(881.884766 0)"/>
     <use xlink:href="#DejaVuSans-Bold-69" transform="translate(986.083984 0)"/>
     <use xlink:href="#DejaVuSans-Bold-73" transform="translate(1020.361328 0)"/>
     <use xlink:href="#DejaVuSans-Bold-73" transform="translate(1079.882812 0)"/>
     <use xlink:href="#DejaVuSans-Bold-65" transform="translate(1139.404297 0)"/>
     <use xlink:href="#DejaVuSans-Bold-64" transform="translate(1207.226562 0)"/>
    </g>
   </g>
   <g id="text_14">
    <!-- pacing_backlog900_300 -->
    <g transform="translate(21.183635 141.452983) scale(0.1 -0.1)">
     <defs>
      <path id="DejaVuSansMono-70" d="M 1172 441 
L 1172 -1331 
L 594 -1331 
L 594 3500 
L 1172 3500 
L 1172 3053 
Q 1316 3313 1555 3448 
Q 1794 3584 2106 3584 
Q 2741 3584 3102 3093 
Q 3463 2603 3463 1734 
Q 3463 881 3100 395 
Q 2738 -91 2106 -91 
Q 1788 -91 1548 45 
Q 1309 181 1172 441 
z
M 2859 1747 
Q 2859 2416 2648 2756 
Q 2438 3097 2022 3097 
Q 1603 3097 1387 2755 
Q 1172 2413 1172 1747 
Q 1172 1084 1387 740 
Q 1603 397 2022 397 
Q 2438 397 2648 737 
Q 2859 1078 2859 1747 
z
" transform="scale(0.015625)"/>
      <path id="DejaVuSansMono-61" d="M 2194 1759 
L 2003 1759 
Q 1500 1759 1245 1582 
Q 991 1406 991 1056 
Q 991 741 1181 566 
Q 1372 391 1709 391 
Q 2184 391 2456 720 
Q 2728 1050 2731 1631 
L 2731 1759 
L 2194 1759 
z
M 3309 1997 
L 3309 0 
L 2731 0 
L 2731 519 
Q 2547 206 2267 57 
Q 1988 -91 1588 -91 
Q 1053 -91 734 211 
Q 416 513 416 1019 
Q 416 1603 808 1906 
Q 1200 2209 1959 2209 
L 2731 2209 
L 2731 2300 
Q 2728 2719 2518 2908 
Q 2309 3097 1850 3097 
Q 1556 3097 1256 3012 
Q 956 2928 672 2766 
L 672 3341 
Q 991 3463 1283 3523 
Q 1575 3584 1850 3584 
Q 2284 3584 2592 3456 
Q 2900 3328 3091 3072 
Q 3209 2916 3259 2686 
Q 3309 2456 3309 1997 
z
" transform="scale(0.015625)"/>
      <path id="DejaVuSansMono-63" d="M 3316 178 
Q 3084 44 2839 -23 
Q 2594 -91 2338 -91 
Q 1525 -91 1067 396 
Q 609 884 609 1747 
Q 609 2609 1067 3096 
Q 1525 3584 2338 3584 
Q 2591 3584 2831 3518 
Q 3072 3453 3316 3316 
L 3316 2713 
Q 3088 2916 2858 3006 
Q 2628 3097 2338 3097 
Q 1797 3097 1506 2747 
Q 1216 2397 1216 1747 
Q 1216 1100 1508 748 
Q 1800 397 2338 397 
Q 2638 397 2875 489 
Q 3113 581 3316 775 
L 3316 178 
z
" transform="scale(0.015625)"/>
      <path id="DejaVuSansMono-6e" d="M 3284 2169 
L 3284 0 
L 2706 0 
L 2706 2169 
Q 2706 2641 2540 2862 
Q 2375 3084 2022 3084 
Q 1619 3084 1401 2798 
Q 1184 2513 1184 1978 
L 1184 0 
L 609 0 
L 609 3500 
L 1184 3500 
L 1184 2975 
Q 1338 3275 1600 3429 
Q 1863 3584 2222 3584 
Q 2756 3584 3020 3232 
Q 3284 2881 3284 2169 
z
" transform="scale(0.015625)"/>
      <path id="DejaVuSansMono-67" d="M 2681 1778 
Q 2681 2425 2470 2761 
Q 2259 3097 1856 3097 
Q 1434 3097 1212 2761 
Q 991 2425 991 1778 
Q 991 1131 1214 792 
Q 1438 453 1863 453 
Q 2259 453 2470 793 
Q 2681 1134 2681 1778 
z
M 3256 225 
Q 3256 -563 2884 -969 
Q 2513 -1375 1791 -1375 
Q 1553 -1375 1293 -1331 
Q 1034 -1288 775 -1203 
L 775 -634 
Q 1081 -778 1331 -847 
Q 1581 -916 1791 -916 
Q 2256 -916 2468 -662 
Q 2681 -409 2681 141 
L 2681 166 
L 2681 556 
Q 2544 263 2306 119 
Q 2069 -25 1728 -25 
Q 1116 -25 750 465 
Q 384 956 384 1778 
Q 384 2603 750 3093 
Q 1116 3584 1728 3584 
Q 2066 3584 2300 3450 
Q 2534 3316 2681 3034 
L 2681 3488 
L 3256 3488 
L 3256 225 
z
" transform="scale(0.015625)"/>
      <path id="DejaVuSansMono-5f" d="M 3853 -1259 
L 3853 -1509 
L 0 -1509 
L 0 -1259 
L 3853 -1259 
z
" transform="scale(0.015625)"/>
      <path id="DejaVuSansMono-62" d="M 2869 1747 
Q 2869 2416 2656 2756 
Q 2444 3097 2028 3097 
Q 1609 3097 1393 2755 
Q 1178 2413 1178 1747 
Q 1178 1084 1393 740 
Q 1609 397 2028 397 
Q 2444 397 2656 737 
Q 2869 1078 2869 1747 
z
M 1178 3053 
Q 1316 3309 1558 3446 
Q 1800 3584 2119 3584 
Q 2750 3584 3112 3098 
Q 3475 2613 3475 1759 
Q 3475 894 3111 401 
Q 2747 -91 2113 -91 
Q 1800 -91 1561 45 
Q 1322 181 1178 441 
L 1178 0 
L 603 0 
L 603 4863 
L 1178 4863 
L 1178 3053 
z
" transform="scale(0.015625)"/>
      <path id="DejaVuSansMono-6b" d="M 738 4863 
L 1331 4863 
L 1331 2047 
L 2841 3500 
L 3541 3500 
L 2163 2181 
L 3756 0 
L 3053 0 
L 1759 1806 
L 1331 1403 
L 1331 0 
L 738 0 
L 738 4863 
z
" transform="scale(0.015625)"/>
      <path id="DejaVuSansMono-6c" d="M 1997 1269 
Q 1997 881 2139 684 
Q 2281 488 2559 488 
L 3231 488 
L 3231 0 
L 2503 0 
Q 1988 0 1705 331 
Q 1422 663 1422 1269 
L 1422 4447 
L 500 4447 
L 500 4897 
L 1997 4897 
L 1997 1269 
z
" transform="scale(0.015625)"/>
      <path id="DejaVuSansMono-6f" d="M 1925 3097 
Q 1488 3097 1263 2756 
Q 1038 2416 1038 1747 
Q 1038 1081 1263 739 
Q 1488 397 1925 397 
Q 2366 397 2591 739 
Q 2816 1081 2816 1747 
Q 2816 2416 2591 2756 
Q 2366 3097 1925 3097 
z
M 1925 3584 
Q 2653 3584 3039 3112 
Q 3425 2641 3425 1747 
Q 3425 850 3040 379 
Q 2656 -91 1925 -91 
Q 1197 -91 812 379 
Q 428 850 428 1747 
Q 428 2641 812 3112 
Q 1197 3584 1925 3584 
z
" transform="scale(0.015625)"/>
      <path id="DejaVuSansMono-39" d="M 1863 2069 
Q 2266 2069 2495 2359 
Q 2725 2650 2725 3163 
Q 2725 3675 2495 3965 
Q 2266 4256 1863 4256 
Q 1444 4256 1231 3979 
Q 1019 3703 1019 3163 
Q 1019 2619 1230 2344 
Q 1441 2069 1863 2069 
z
M 738 97 
L 738 678 
Q 934 563 1156 502 
Q 1378 441 1619 441 
Q 2219 441 2526 892 
Q 2834 1344 2834 2222 
Q 2688 1909 2422 1742 
Q 2156 1575 1813 1575 
Q 1138 1575 767 1990 
Q 397 2406 397 3169 
Q 397 3922 776 4336 
Q 1156 4750 1850 4750 
Q 2663 4750 3041 4165 
Q 3419 3581 3419 2328 
Q 3419 1150 2964 529 
Q 2509 -91 1644 -91 
Q 1416 -91 1184 -42 
Q 953 6 738 97 
z
" transform="scale(0.015625)"/>
     </defs>
     <use xlink:href="#DejaVuSansMono-70"/>
     <use xlink:href="#DejaVuSansMono-61" transform="translate(60.205078 0)"/>
     <use xlink:href="#DejaVuSansMono-63" transform="translate(120.410156 0)"/>
     <use xlink:href="#DejaVuSansMono-69" transform="translate(180.615234 0)"/>
     <use xlink:href="#DejaVuSansMono-6e" transform="translate(240.820312 0)"/>
     <use xlink:href="#DejaVuSansMono-67" transform="translate(301.025391 0)"/>
     <use xlink:href="#DejaVuSansMono-5f" transform="translate(361.230469 0)"/>
     <use xlink:href="#DejaVuSansMono-62" transform="translate(421.435547 0)"/>
     <use xlink:href="#DejaVuSansMono-61" transform="translate(481.640625 0)"/>
     <use xlink:href="#DejaVuSansMono-63" transform="translate(541.845703 0)"/>
     <use xlink:href="#DejaVuSansMono-6b" transform="translate(602.050781 0)"/>
     <use xlink:href="#DejaVuSansMono-6c" transform="translate(662.255859 0)"/>
     <use xlink:href="#DejaVuSansMono-6f" transform="translate(722.460938 0)"/>
     <use xlink:href="#DejaVuSansMono-67" transform="translate(782.666016 0)"/>
     <use xlink:href="#DejaVuSansMono-39" transform="translate(842.871094 0)"/>
     <use xlink:href="#DejaVuSansMono-30" transform="translate(903.076172 0)"/>
     <use xlink:href="#DejaVuSansMono-30" transform="translate(963.28125 0)"/>
     <use xlink:href="#DejaVuSansMono-5f" transform="translate(1023.486328 0)"/>
     <use xlink:href="#DejaVuSansMono-33" transform="translate(1083.691406 0)"/>
     <use xlink:href="#DejaVuSansMono-30" transform="translate(1143.896484 0)"/>
     <use xlink:href="#DejaVuSansMono-30" transform="translate(1204.101562 0)"/>
    </g>
    <!-- $n_{\rm heard}$ = 2 -->
    <g transform="translate(21.183635 152.99267) scale(0.1 -0.1)">
     <use xlink:href="#DejaVuSans-Oblique-6e" transform="translate(0 0.78125)"/>
     <use xlink:href="#DejaVuSans-68" transform="translate(63.378906 -15.625) scale(0.7)"/>
     <use xlink:href="#DejaVuSans-65" transform="translate(107.744141 -15.625) scale(0.7)"/>
     <use xlink:href="#DejaVuSans-61" transform="translate(150.810547 -15.625) scale(0.7)"/>
     <use xlink:href="#DejaVuSans-72" transform="translate(193.706055 -15.625) scale(0.7)"/>
     <use xlink:href="#DejaVuSans-64" transform="translate(222.485352 -15.625) scale(0.7)"/>
     <use xlink:href="#DejaVuSansMono-20" transform="translate(269.65332 0.78125)"/>
     <use xlink:href="#DejaVuSansMono-3d" transform="translate(329.858398 0.78125)"/>
     <use xlink:href="#DejaVuSansMono-20" transform="translate(390.063477 0.78125)"/>
     <use xlink:href="#DejaVuSansMono-32" transform="translate(450.268555 0.78125)"/>
    </g>
   </g>
   <g id="text_15">
    <!-- Obligation n01:routine:00004  (seed 0, backhaul outage [4h,7h)) -->
    <g transform="translate(16.683864 19.650406) scale(0.11 -0.11)">
     <defs>
      <path id="DejaVuSans-4f" d="M 2522 4238 
Q 1834 4238 1429 3725 
Q 1025 3213 1025 2328 
Q 1025 1447 1429 934 
Q 1834 422 2522 422 
Q 3209 422 3611 934 
Q 4013 1447 4013 2328 
Q 4013 3213 3611 3725 
Q 3209 4238 2522 4238 
z
M 2522 4750 
Q 3503 4750 4090 4092 
Q 4678 3434 4678 2328 
Q 4678 1225 4090 567 
Q 3503 -91 2522 -91 
Q 1538 -91 948 565 
Q 359 1222 359 2328 
Q 359 3434 948 4092 
Q 1538 4750 2522 4750 
z
" transform="scale(0.015625)"/>
      <path id="DejaVuSans-67" d="M 2906 1791 
Q 2906 2416 2648 2759 
Q 2391 3103 1925 3103 
Q 1463 3103 1205 2759 
Q 947 2416 947 1791 
Q 947 1169 1205 825 
Q 1463 481 1925 481 
Q 2391 481 2648 825 
Q 2906 1169 2906 1791 
z
M 3481 434 
Q 3481 -459 3084 -895 
Q 2688 -1331 1869 -1331 
Q 1566 -1331 1297 -1286 
Q 1028 -1241 775 -1147 
L 775 -588 
Q 1028 -725 1275 -790 
Q 1522 -856 1778 -856 
Q 2344 -856 2625 -561 
Q 2906 -266 2906 331 
L 2906 616 
Q 2728 306 2450 153 
Q 2172 0 1784 0 
Q 1141 0 747 490 
Q 353 981 353 1791 
Q 353 2603 747 3093 
Q 1141 3584 1784 3584 
Q 2172 3584 2450 3431 
Q 2728 3278 2906 2969 
L 2906 3500 
L 3481 3500 
L 3481 434 
z
" transform="scale(0.015625)"/>
      <path id="DejaVuSans-31" d="M 794 531 
L 1825 531 
L 1825 4091 
L 703 3866 
L 703 4441 
L 1819 4666 
L 2450 4666 
L 2450 531 
L 3481 531 
L 3481 0 
L 794 0 
L 794 531 
z
" transform="scale(0.015625)"/>
      <path id="DejaVuSans-3a" d="M 750 794 
L 1409 794 
L 1409 0 
L 750 0 
L 750 794 
z
M 750 3309 
L 1409 3309 
L 1409 2516 
L 750 2516 
L 750 3309 
z
" transform="scale(0.015625)"/>
      <path id="DejaVuSans-2c" d="M 750 794 
L 1409 794 
L 1409 256 
L 897 -744 
L 494 -744 
L 750 256 
L 750 794 
z
" transform="scale(0.015625)"/>
      <path id="DejaVuSans-5b" d="M 550 4863 
L 1875 4863 
L 1875 4416 
L 1125 4416 
L 1125 -397 
L 1875 -397 
L 1875 -844 
L 550 -844 
L 550 4863 
z
" transform="scale(0.015625)"/>
     </defs>
     <use xlink:href="#DejaVuSans-4f"/>
     <use xlink:href="#DejaVuSans-62" transform="translate(78.710938 0)"/>
     <use xlink:href="#DejaVuSans-6c" transform="translate(142.1875 0)"/>
     <use xlink:href="#DejaVuSans-69" transform="translate(169.970703 0)"/>
     <use xlink:href="#DejaVuSans-67" transform="translate(197.753906 0)"/>
     <use xlink:href="#DejaVuSans-61" transform="translate(261.230469 0)"/>
     <use xlink:href="#DejaVuSans-74" transform="translate(322.509766 0)"/>
     <use xlink:href="#DejaVuSans-69" transform="translate(361.71875 0)"/>
     <use xlink:href="#DejaVuSans-6f" transform="translate(389.501953 0)"/>
     <use xlink:href="#DejaVuSans-6e" transform="translate(450.683594 0)"/>
     <use xlink:href="#DejaVuSans-20" transform="translate(514.0625 0)"/>
     <use xlink:href="#DejaVuSans-6e" transform="translate(545.849609 0)"/>
     <use xlink:href="#DejaVuSans-30" transform="translate(609.228516 0)"/>
     <use xlink:href="#DejaVuSans-31" transform="translate(672.851562 0)"/>
     <use xlink:href="#DejaVuSans-3a" transform="translate(736.474609 0)"/>
     <use xlink:href="#DejaVuSans-72" transform="translate(770.166016 0)"/>
     <use xlink:href="#DejaVuSans-6f" transform="translate(809.029297 0)"/>
     <use xlink:href="#DejaVuSans-75" transform="translate(870.210938 0)"/>
     <use xlink:href="#DejaVuSans-74" transform="translate(933.589844 0)"/>
     <use xlink:href="#DejaVuSans-69" transform="translate(972.798828 0)"/>
     <use xlink:href="#DejaVuSans-6e" transform="translate(1000.582031 0)"/>
     <use xlink:href="#DejaVuSans-65" transform="translate(1063.960938 0)"/>
     <use xlink:href="#DejaVuSans-3a" transform="translate(1125.484375 0)"/>
     <use xlink:href="#DejaVuSans-30" transform="translate(1159.175781 0)"/>
     <use xlink:href="#DejaVuSans-30" transform="translate(1222.798828 0)"/>
     <use xlink:href="#DejaVuSans-30" transform="translate(1286.421875 0)"/>
     <use xlink:href="#DejaVuSans-30" transform="translate(1350.044922 0)"/>
     <use xlink:href="#DejaVuSans-34" transform="translate(1413.667969 0)"/>
     <use xlink:href="#DejaVuSans-20" transform="translate(1477.291016 0)"/>
     <use xlink:href="#DejaVuSans-20" transform="translate(1509.078125 0)"/>
     <use xlink:href="#DejaVuSans-28" transform="translate(1540.865234 0)"/>
     <use xlink:href="#DejaVuSans-73" transform="translate(1579.878906 0)"/>
     <use xlink:href="#DejaVuSans-65" transform="translate(1631.978516 0)"/>
     <use xlink:href="#DejaVuSans-65" transform="translate(1693.501953 0)"/>
     <use xlink:href="#DejaVuSans-64" transform="translate(1755.025391 0)"/>
     <use xlink:href="#DejaVuSans-20" transform="translate(1818.501953 0)"/>
     <use xlink:href="#DejaVuSans-30" transform="translate(1850.289062 0)"/>
     <use xlink:href="#DejaVuSans-2c" transform="translate(1913.912109 0)"/>
     <use xlink:href="#DejaVuSans-20" transform="translate(1945.699219 0)"/>
     <use xlink:href="#DejaVuSans-62" transform="translate(1977.486328 0)"/>
     <use xlink:href="#DejaVuSans-61" transform="translate(2040.962891 0)"/>
     <use xlink:href="#DejaVuSans-63" transform="translate(2102.242188 0)"/>
     <use xlink:href="#DejaVuSans-6b" transform="translate(2157.222656 0)"/>
     <use xlink:href="#DejaVuSans-68" transform="translate(2215.132812 0)"/>
     <use xlink:href="#DejaVuSans-61" transform="translate(2278.511719 0)"/>
     <use xlink:href="#DejaVuSans-75" transform="translate(2339.791016 0)"/>
     <use xlink:href="#DejaVuSans-6c" transform="translate(2403.169922 0)"/>
     <use xlink:href="#DejaVuSans-20" transform="translate(2430.953125 0)"/>
     <use xlink:href="#DejaVuSans-6f" transform="translate(2462.740234 0)"/>
     <use xlink:href="#DejaVuSans-75" transform="translate(2523.921875 0)"/>
     <use xlink:href="#DejaVuSans-74" transform="translate(2587.300781 0)"/>
     <use xlink:href="#DejaVuSans-61" transform="translate(2626.509766 0)"/>
     <use xlink:href="#DejaVuSans-67" transform="translate(2687.789062 0)"/>
     <use xlink:href="#DejaVuSans-65" transform="translate(2751.265625 0)"/>
     <use xlink:href="#DejaVuSans-20" transform="translate(2812.789062 0)"/>
     <use xlink:href="#DejaVuSans-5b" transform="translate(2844.576172 0)"/>
     <use xlink:href="#DejaVuSans-34" transform="translate(2883.589844 0)"/>
     <use xlink:href="#DejaVuSans-68" transform="translate(2947.212891 0)"/>
     <use xlink:href="#DejaVuSans-2c" transform="translate(3010.591797 0)"/>
     <use xlink:href="#DejaVuSans-37" transform="translate(3042.378906 0)"/>
     <use xlink:href="#DejaVuSans-68" transform="translate(3106.001953 0)"/>
     <use xlink:href="#DejaVuSans-29" transform="translate(3169.380859 0)"/>
     <use xlink:href="#DejaVuSans-29" transform="translate(3208.394531 0)"/>
    </g>
    <!-- same number of copies, same last opportunity, different first arrival -->
    <g transform="translate(16.683864 31.968) scale(0.11 -0.11)">
     <defs>
      <path id="DejaVuSans-66" d="M 2375 4863 
L 2375 4384 
L 1825 4384 
Q 1516 4384 1395 4259 
Q 1275 4134 1275 3809 
L 1275 3500 
L 2222 3500 
L 2222 3053 
L 1275 3053 
L 1275 0 
L 697 0 
L 697 3053 
L 147 3053 
L 147 3500 
L 697 3500 
L 697 3744 
Q 697 4328 969 4595 
Q 1241 4863 1831 4863 
L 2375 4863 
z
" transform="scale(0.015625)"/>
     </defs>
     <use xlink:href="#DejaVuSans-73"/>
     <use xlink:href="#DejaVuSans-61" transform="translate(52.099609 0)"/>
     <use xlink:href="#DejaVuSans-6d" transform="translate(113.378906 0)"/>
     <use xlink:href="#DejaVuSans-65" transform="translate(210.791016 0)"/>
     <use xlink:href="#DejaVuSans-20" transform="translate(272.314453 0)"/>
     <use xlink:href="#DejaVuSans-6e" transform="translate(304.101562 0)"/>
     <use xlink:href="#DejaVuSans-75" transform="translate(367.480469 0)"/>
     <use xlink:href="#DejaVuSans-6d" transform="translate(430.859375 0)"/>
     <use xlink:href="#DejaVuSans-62" transform="translate(528.271484 0)"/>
     <use xlink:href="#DejaVuSans-65" transform="translate(591.748047 0)"/>
     <use xlink:href="#DejaVuSans-72" transform="translate(653.271484 0)"/>
     <use xlink:href="#DejaVuSans-20" transform="translate(694.384766 0)"/>
     <use xlink:href="#DejaVuSans-6f" transform="translate(726.171875 0)"/>
     <use xlink:href="#DejaVuSans-66" transform="translate(787.353516 0)"/>
     <use xlink:href="#DejaVuSans-20" transform="translate(822.558594 0)"/>
     <use xlink:href="#DejaVuSans-63" transform="translate(854.345703 0)"/>
     <use xlink:href="#DejaVuSans-6f" transform="translate(909.326172 0)"/>
     <use xlink:href="#DejaVuSans-70" transform="translate(970.507812 0)"/>
     <use xlink:href="#DejaVuSans-69" transform="translate(1033.984375 0)"/>
     <use xlink:href="#DejaVuSans-65" transform="translate(1061.767578 0)"/>
     <use xlink:href="#DejaVuSans-73" transform="translate(1123.291016 0)"/>
     <use xlink:href="#DejaVuSans-2c" transform="translate(1175.390625 0)"/>
     <use xlink:href="#DejaVuSans-20" transform="translate(1207.177734 0)"/>
     <use xlink:href="#DejaVuSans-73" transform="translate(1238.964844 0)"/>
     <use xlink:href="#DejaVuSans-61" transform="translate(1291.064453 0)"/>
     <use xlink:href="#DejaVuSans-6d" transform="translate(1352.34375 0)"/>
     <use xlink:href="#DejaVuSans-65" transform="translate(1449.755859 0)"/>
     <use xlink:href="#DejaVuSans-20" transform="translate(1511.279297 0)"/>
     <use xlink:href="#DejaVuSans-6c" transform="translate(1543.066406 0)"/>
     <use xlink:href="#DejaVuSans-61" transform="translate(1570.849609 0)"/>
     <use xlink:href="#DejaVuSans-73" transform="translate(1632.128906 0)"/>
     <use xlink:href="#DejaVuSans-74" transform="translate(1684.228516 0)"/>
     <use xlink:href="#DejaVuSans-20" transform="translate(1723.4375 0)"/>
     <use xlink:href="#DejaVuSans-6f" transform="translate(1755.224609 0)"/>
     <use xlink:href="#DejaVuSans-70" transform="translate(1816.40625 0)"/>
     <use xlink:href="#DejaVuSans-70" transform="translate(1879.882812 0)"/>
     <use xlink:href="#DejaVuSans-6f" transform="translate(1943.359375 0)"/>
     <use xlink:href="#DejaVuSans-72" transform="translate(2004.541016 0)"/>
     <use xlink:href="#DejaVuSans-74" transform="translate(2045.654297 0)"/>
     <use xlink:href="#DejaVuSans-75" transform="translate(2084.863281 0)"/>
     <use xlink:href="#DejaVuSans-6e" transform="translate(2148.242188 0)"/>
     <use xlink:href="#DejaVuSans-69" transform="translate(2211.621094 0)"/>
     <use xlink:href="#DejaVuSans-74" transform="translate(2239.404297 0)"/>
     <use xlink:href="#DejaVuSans-79" transform="translate(2278.613281 0)"/>
     <use xlink:href="#DejaVuSans-2c" transform="translate(2337.792969 0)"/>
     <use xlink:href="#DejaVuSans-20" transform="translate(2369.580078 0)"/>
     <use xlink:href="#DejaVuSans-64" transform="translate(2401.367188 0)"/>
     <use xlink:href="#DejaVuSans-69" transform="translate(2464.84375 0)"/>
     <use xlink:href="#DejaVuSans-66" transform="translate(2492.626953 0)"/>
     <use xlink:href="#DejaVuSans-66" transform="translate(2527.832031 0)"/>
     <use xlink:href="#DejaVuSans-65" transform="translate(2563.037109 0)"/>
     <use xlink:href="#DejaVuSans-72" transform="translate(2624.560547 0)"/>
     <use xlink:href="#DejaVuSans-65" transform="translate(2663.423828 0)"/>
     <use xlink:href="#DejaVuSans-6e" transform="translate(2724.947266 0)"/>
     <use xlink:href="#DejaVuSans-74" transform="translate(2788.326172 0)"/>
     <use xlink:href="#DejaVuSans-20" transform="translate(2827.535156 0)"/>
     <use xlink:href="#DejaVuSans-66" transform="translate(2859.322266 0)"/>
     <use xlink:href="#DejaVuSans-69" transform="translate(2894.527344 0)"/>
     <use xlink:href="#DejaVuSans-72" transform="translate(2922.310547 0)"/>
     <use xlink:href="#DejaVuSans-73" transform="translate(2963.423828 0)"/>
     <use xlink:href="#DejaVuSans-74" transform="translate(3015.523438 0)"/>
     <use xlink:href="#DejaVuSans-20" transform="translate(3054.732422 0)"/>
     <use xlink:href="#DejaVuSans-61" transform="translate(3086.519531 0)"/>
     <use xlink:href="#DejaVuSans-72" transform="translate(3147.798828 0)"/>
     <use xlink:href="#DejaVuSans-72" transform="translate(3187.162109 0)"/>
     <use xlink:href="#DejaVuSans-69" transform="translate(3228.275391 0)"/>
     <use xlink:href="#DejaVuSans-76" transform="translate(3256.058594 0)"/>
     <use xlink:href="#DejaVuSans-61" transform="translate(3315.238281 0)"/>
     <use xlink:href="#DejaVuSans-6c" transform="translate(3376.517578 0)"/>
    </g>
   </g>
   <g id="line2d_10">
    <path d="M 140.427551 92.470222 
" clip-path="url(#pb0ebe4f41f)" style="fill: none; stroke: #1e8449; stroke-width: 1.5; stroke-linecap: square"/>
    <defs>
     <path id="m46f0616340" d="M 0 5.5 
C 1.458617 5.5 2.857689 4.920485 3.889087 3.889087 
C 4.920485 2.857689 5.5 1.458617 5.5 0 
C 5.5 -1.458617 4.920485 -2.857689 3.889087 -3.889087 
C 2.857689 -4.920485 1.458617 -5.5 0 -5.5 
C -1.458617 -5.5 -2.857689 -4.920485 -3.889087 -3.889087 
C -4.920485 -2.857689 -5.5 -1.458617 -5.5 0 
C -5.5 1.458617 -4.920485 2.857689 -3.889087 3.889087 
C -2.857689 4.920485 -1.458617 5.5 0 5.5 
z
" style="stroke: #1e8449"/>
    </defs>
    <g clip-path="url(#pb0ebe4f41f)">
     <use xlink:href="#m46f0616340" x="140.427551" y="92.470222" style="fill: #1e8449; stroke: #1e8449"/>
    </g>
   </g>
   <g id="line2d_11">
    <path d="M 410.413775 144.436889 
" clip-path="url(#pb0ebe4f41f)" style="fill: none; stroke: #c0392b; stroke-width: 1.5; stroke-linecap: square"/>
    <defs>
     <path id="mc1dc25de50" d="M 0 5.5 
C 1.458617 5.5 2.857689 4.920485 3.889087 3.889087 
C 4.920485 2.857689 5.5 1.458617 5.5 0 
C 5.5 -1.458617 4.920485 -2.857689 3.889087 -3.889087 
C 2.857689 -4.920485 1.458617 -5.5 0 -5.5 
C -1.458617 -5.5 -2.857689 -4.920485 -3.889087 -3.889087 
C -4.920485 -2.857689 -5.5 -1.458617 -5.5 0 
C -5.5 1.458617 -4.920485 2.857689 -3.889087 3.889087 
C -2.857689 4.920485 -1.458617 5.5 0 5.5 
z
" style="stroke: #c0392b"/>
    </defs>
    <g clip-path="url(#pb0ebe4f41f)">
     <use xlink:href="#mc1dc25de50" x="410.413775" y="144.436889" style="fill: #c0392b; stroke: #c0392b"/>
    </g>
   </g>
  </g>
  <g id="text_16">
   <!-- Both arms have $n_{\rm heard}=2$ and $B(d)=5400$ s. The only difference is when the first valid sample reached the gateway, $h^*$: -->
   <g style="fill: #333333" transform="translate(8.2944 231.031687) scale(0.09 -0.09)">
    <defs>
     <path id="DejaVuSans-42" d="M 1259 2228 
L 1259 519 
L 2272 519 
Q 2781 519 3026 730 
Q 3272 941 3272 1375 
Q 3272 1813 3026 2020 
Q 2781 2228 2272 2228 
L 1259 2228 
z
M 1259 4147 
L 1259 2741 
L 2194 2741 
Q 2656 2741 2882 2914 
Q 3109 3088 3109 3444 
Q 3109 3797 2882 3972 
Q 2656 4147 2194 4147 
L 1259 4147 
z
M 628 4666 
L 2241 4666 
Q 2963 4666 3353 4366 
Q 3744 4066 3744 3513 
Q 3744 3084 3544 2831 
Q 3344 2578 2956 2516 
Q 3422 2416 3680 2098 
Q 3938 1781 3938 1306 
Q 3938 681 3513 340 
Q 3088 0 2303 0 
L 628 0 
L 628 4666 
z
" transform="scale(0.015625)"/>
     <path id="DejaVuSans-32" d="M 1228 531 
L 3431 531 
L 3431 0 
L 469 0 
L 469 531 
Q 828 903 1448 1529 
Q 2069 2156 2228 2338 
Q 2531 2678 2651 2914 
Q 2772 3150 2772 3378 
Q 2772 3750 2511 3984 
Q 2250 4219 1831 4219 
Q 1534 4219 1204 4116 
Q 875 4013 500 3803 
L 500 4441 
Q 881 4594 1212 4672 
Q 1544 4750 1819 4750 
Q 2544 4750 2975 4387 
Q 3406 4025 3406 3419 
Q 3406 3131 3298 2873 
Q 3191 2616 2906 2266 
Q 2828 2175 2409 1742 
Q 1991 1309 1228 531 
z
" transform="scale(0.015625)"/>
     <path id="DejaVuSans-2e" d="M 684 794 
L 1344 794 
L 1344 0 
L 684 0 
L 684 794 
z
" transform="scale(0.015625)"/>
     <path id="DejaVuSans-54" d="M -19 4666 
L 3928 4666 
L 3928 4134 
L 2272 4134 
L 2272 0 
L 1638 0 
L 1638 4134 
L -19 4134 
L -19 4666 
z
" transform="scale(0.015625)"/>
     <path id="DejaVuSans-77" d="M 269 3500 
L 844 3500 
L 1563 769 
L 2278 3500 
L 2956 3500 
L 3675 769 
L 4391 3500 
L 4966 3500 
L 4050 0 
L 3372 0 
L 2619 2869 
L 1863 0 
L 1184 0 
L 269 3500 
z
" transform="scale(0.015625)"/>
    </defs>
    <use xlink:href="#DejaVuSans-42" transform="translate(0 0.765625)"/>
    <use xlink:href="#DejaVuSans-6f" transform="translate(68.603516 0.765625)"/>
    <use xlink:href="#DejaVuSans-74" transform="translate(129.785156 0.765625)"/>
    <use xlink:href="#DejaVuSans-68" transform="translate(168.994141 0.765625)"/>
    <use xlink:href="#DejaVuSans-20" transform="translate(232.373047 0.765625)"/>
    <use xlink:href="#DejaVuSans-61" transform="translate(264.160156 0.765625)"/>
    <use xlink:href="#DejaVuSans-72" transform="translate(325.439453 0.765625)"/>
    <use xlink:href="#DejaVuSans-6d" transform="translate(366.552734 0.765625)"/>
    <use xlink:href="#DejaVuSans-73" transform="translate(463.964844 0.765625)"/>
    <use xlink:href="#DejaVuSans-20" transform="translate(516.064453 0.765625)"/>
    <use xlink:href="#DejaVuSans-68" transform="translate(547.851562 0.765625)"/>
    <use xlink:href="#DejaVuSans-61" transform="translate(611.230469 0.765625)"/>
    <use xlink:href="#DejaVuSans-76" transform="translate(672.509766 0.765625)"/>
    <use xlink:href="#DejaVuSans-65" transform="translate(731.689453 0.765625)"/>
    <use xlink:href="#DejaVuSans-20" transform="translate(793.212891 0.765625)"/>
    <use xlink:href="#DejaVuSans-Oblique-6e" transform="translate(825 0.765625)"/>
    <use xlink:href="#DejaVuSans-68" transform="translate(888.378906 -15.640625) scale(0.7)"/>
    <use xlink:href="#DejaVuSans-65" transform="translate(932.744141 -15.640625) scale(0.7)"/>
    <use xlink:href="#DejaVuSans-61" transform="translate(975.810547 -15.640625) scale(0.7)"/>
    <use xlink:href="#DejaVuSans-72" transform="translate(1018.706055 -15.640625) scale(0.7)"/>
    <use xlink:href="#DejaVuSans-64" transform="translate(1047.485352 -15.640625) scale(0.7)"/>
    <use xlink:href="#DejaVuSans-3d" transform="translate(1114.135742 0.765625)"/>
    <use xlink:href="#DejaVuSans-32" transform="translate(1217.407227 0.765625)"/>
    <use xlink:href="#DejaVuSans-20" transform="translate(1281.030273 0.765625)"/>
    <use xlink:href="#DejaVuSans-61" transform="translate(1312.817383 0.765625)"/>
    <use xlink:href="#DejaVuSans-6e" transform="translate(1374.09668 0.765625)"/>
    <use xlink:href="#DejaVuSans-64" transform="translate(1437.475586 0.765625)"/>
    <use xlink:href="#DejaVuSans-20" transform="translate(1500.952148 0.765625)"/>
    <use xlink:href="#DejaVuSans-Oblique-42" transform="translate(1532.739258 0.765625)"/>
    <use xlink:href="#DejaVuSans-28" transform="translate(1601.342773 0.765625)"/>
    <use xlink:href="#DejaVuSans-Oblique-64" transform="translate(1640.356445 0.765625)"/>
    <use xlink:href="#DejaVuSans-29" transform="translate(1703.833008 0.765625)"/>
    <use xlink:href="#DejaVuSans-3d" transform="translate(1762.329102 0.765625)"/>
    <use xlink:href="#DejaVuSans-35" transform="translate(1865.600586 0.765625)"/>
    <use xlink:href="#DejaVuSans-34" transform="translate(1929.223633 0.765625)"/>
    <use xlink:href="#DejaVuSans-30" transform="translate(1992.84668 0.765625)"/>
    <use xlink:href="#DejaVuSans-30" transform="translate(2056.469727 0.765625)"/>
    <use xlink:href="#DejaVuSans-20" transform="translate(2120.092773 0.765625)"/>
    <use xlink:href="#DejaVuSans-73" transform="translate(2151.879883 0.765625)"/>
    <use xlink:href="#DejaVuSans-2e" transform="translate(2203.979492 0.765625)"/>
    <use xlink:href="#DejaVuSans-20" transform="translate(2235.766602 0.765625)"/>
    <use xlink:href="#DejaVuSans-54" transform="translate(2267.553711 0.765625)"/>
    <use xlink:href="#DejaVuSans-68" transform="translate(2328.637695 0.765625)"/>
    <use xlink:href="#DejaVuSans-65" transform="translate(2392.016602 0.765625)"/>
    <use xlink:href="#DejaVuSans-20" transform="translate(2453.540039 0.765625)"/>
    <use xlink:href="#DejaVuSans-6f" transform="translate(2485.327148 0.765625)"/>
    <use xlink:href="#DejaVuSans-6e" transform="translate(2546.508789 0.765625)"/>
    <use xlink:href="#DejaVuSans-6c" transform="translate(2609.887695 0.765625)"/>
    <use xlink:href="#DejaVuSans-79" transform="translate(2637.670898 0.765625)"/>
    <use xlink:href="#DejaVuSans-20" transform="translate(2696.850586 0.765625)"/>
    <use xlink:href="#DejaVuSans-64" transform="translate(2728.637695 0.765625)"/>
    <use xlink:href="#DejaVuSans-69" transform="translate(2792.114258 0.765625)"/>
    <use xlink:href="#DejaVuSans-66" transform="translate(2819.897461 0.765625)"/>
    <use xlink:href="#DejaVuSans-66" transform="translate(2855.102539 0.765625)"/>
    <use xlink:href="#DejaVuSans-65" transform="translate(2890.307617 0.765625)"/>
    <use xlink:href="#DejaVuSans-72" transform="translate(2951.831055 0.765625)"/>
    <use xlink:href="#DejaVuSans-65" transform="translate(2992.944336 0.765625)"/>
    <use xlink:href="#DejaVuSans-6e" transform="translate(3054.467773 0.765625)"/>
    <use xlink:href="#DejaVuSans-63" transform="translate(3117.84668 0.765625)"/>
    <use xlink:href="#DejaVuSans-65" transform="translate(3172.827148 0.765625)"/>
    <use xlink:href="#DejaVuSans-20" transform="translate(3234.350586 0.765625)"/>
    <use xlink:href="#DejaVuSans-69" transform="translate(3266.137695 0.765625)"/>
    <use xlink:href="#DejaVuSans-73" transform="translate(3293.920898 0.765625)"/>
    <use xlink:href="#DejaVuSans-20" transform="translate(3346.020508 0.765625)"/>
    <use xlink:href="#DejaVuSans-77" transform="translate(3377.807617 0.765625)"/>
    <use xlink:href="#DejaVuSans-68" transform="translate(3459.594727 0.765625)"/>
    <use xlink:href="#DejaVuSans-65" transform="translate(3522.973633 0.765625)"/>
    <use xlink:href="#DejaVuSans-6e" transform="translate(3584.49707 0.765625)"/>
    <use xlink:href="#DejaVuSans-20" transform="translate(3647.875977 0.765625)"/>
    <use xlink:href="#DejaVuSans-74" transform="translate(3679.663086 0.765625)"/>
    <use xlink:href="#DejaVuSans-68" transform="translate(3718.87207 0.765625)"/>
    <use xlink:href="#DejaVuSans-65" transform="translate(3782.250977 0.765625)"/>
    <use xlink:href="#DejaVuSans-20" transform="translate(3843.774414 0.765625)"/>
    <use xlink:href="#DejaVuSans-66" transform="translate(3875.561523 0.765625)"/>
    <use xlink:href="#DejaVuSans-69" transform="translate(3910.766602 0.765625)"/>
    <use xlink:href="#DejaVuSans-72" transform="translate(3938.549805 0.765625)"/>
    <use xlink:href="#DejaVuSans-73" transform="translate(3979.663086 0.765625)"/>
    <use xlink:href="#DejaVuSans-74" transform="translate(4031.762695 0.765625)"/>
    <use xlink:href="#DejaVuSans-20" transform="translate(4070.97168 0.765625)"/>
    <use xlink:href="#DejaVuSans-76" transform="translate(4102.758789 0.765625)"/>
    <use xlink:href="#DejaVuSans-61" transform="translate(4161.938477 0.765625)"/>
    <use xlink:href="#DejaVuSans-6c" transform="translate(4223.217773 0.765625)"/>
    <use xlink:href="#DejaVuSans-69" transform="translate(4251.000977 0.765625)"/>
    <use xlink:href="#DejaVuSans-64" transform="translate(4278.78418 0.765625)"/>
    <use xlink:href="#DejaVuSans-20" transform="translate(4342.260742 0.765625)"/>
    <use xlink:href="#DejaVuSans-73" transform="translate(4374.047852 0.765625)"/>
    <use xlink:href="#DejaVuSans-61" transform="translate(4426.147461 0.765625)"/>
    <use xlink:href="#DejaVuSans-6d" transform="translate(4487.426758 0.765625)"/>
    <use xlink:href="#DejaVuSans-70" transform="translate(4584.838867 0.765625)"/>
    <use xlink:href="#DejaVuSans-6c" transform="translate(4648.31543 0.765625)"/>
    <use xlink:href="#DejaVuSans-65" transform="translate(4676.098633 0.765625)"/>
    <use xlink:href="#DejaVuSans-20" transform="translate(4737.62207 0.765625)"/>
    <use xlink:href="#DejaVuSans-72" transform="translate(4769.40918 0.765625)"/>
    <use xlink:href="#DejaVuSans-65" transform="translate(4810.522461 0.765625)"/>
    <use xlink:href="#DejaVuSans-61" transform="translate(4872.045898 0.765625)"/>
    <use xlink:href="#DejaVuSans-63" transform="translate(4933.325195 0.765625)"/>
    <use xlink:href="#DejaVuSans-68" transform="translate(4988.305664 0.765625)"/>
    <use xlink:href="#DejaVuSans-65" transform="translate(5051.68457 0.765625)"/>
    <use xlink:href="#DejaVuSans-64" transform="translate(5113.208008 0.765625)"/>
    <use xlink:href="#DejaVuSans-20" transform="translate(5176.68457 0.765625)"/>
    <use xlink:href="#DejaVuSans-74" transform="translate(5208.47168 0.765625)"/>
    <use xlink:href="#DejaVuSans-68" transform="translate(5247.680664 0.765625)"/>
    <use xlink:href="#DejaVuSans-65" transform="translate(5311.05957 0.765625)"/>
    <use xlink:href="#DejaVuSans-20" transform="translate(5372.583008 0.765625)"/>
    <use xlink:href="#DejaVuSans-67" transform="translate(5404.370117 0.765625)"/>
    <use xlink:href="#DejaVuSans-61" transform="translate(5467.84668 0.765625)"/>
    <use xlink:href="#DejaVuSans-74" transform="translate(5529.125977 0.765625)"/>
    <use xlink:href="#DejaVuSans-65" transform="translate(5568.334961 0.765625)"/>
    <use xlink:href="#DejaVuSans-77" transform="translate(5629.858398 0.765625)"/>
    <use xlink:href="#DejaVuSans-61" transform="translate(5711.645508 0.765625)"/>
    <use xlink:href="#DejaVuSans-79" transform="translate(5772.924805 0.765625)"/>
    <use xlink:href="#DejaVuSans-2c" transform="translate(5832.104492 0.765625)"/>
    <use xlink:href="#DejaVuSans-20" transform="translate(5863.891602 0.765625)"/>
    <use xlink:href="#DejaVuSans-Oblique-68" transform="translate(5895.678711 0.765625)"/>
    <use xlink:href="#DejaVuSans-2a" transform="translate(5980.143021 39.046875) scale(0.7)"/>
    <use xlink:href="#DejaVuSans-3a" transform="translate(6031.515091 0.765625)"/>
   </g>
   <!-- the number of copies does not enter the delivery decision - - the first arrival does. -->
   <g style="fill: #333333" transform="translate(8.2944 241.128) scale(0.09 -0.09)">
    <defs>
     <path id="DejaVuSans-2d" d="M 313 2009 
L 1997 2009 
L 1997 1497 
L 313 1497 
L 313 2009 
z
" transform="scale(0.015625)"/>
    </defs>
    <use xlink:href="#DejaVuSans-74"/>
    <use xlink:href="#DejaVuSans-68" transform="translate(39.208984 0)"/>
    <use xlink:href="#DejaVuSans-65" transform="translate(102.587891 0)"/>
    <use xlink:href="#DejaVuSans-20" transform="translate(164.111328 0)"/>
    <use xlink:href="#DejaVuSans-6e" transform="translate(195.898438 0)"/>
    <use xlink:href="#DejaVuSans-75" transform="translate(259.277344 0)"/>
    <use xlink:href="#DejaVuSans-6d" transform="translate(322.65625 0)"/>
    <use xlink:href="#DejaVuSans-62" transform="translate(420.068359 0)"/>
    <use xlink:href="#DejaVuSans-65" transform="translate(483.544922 0)"/>
    <use xlink:href="#DejaVuSans-72" transform="translate(545.068359 0)"/>
    <use xlink:href="#DejaVuSans-20" transform="translate(586.181641 0)"/>
    <use xlink:href="#DejaVuSans-6f" transform="translate(617.96875 0)"/>
    <use xlink:href="#DejaVuSans-66" transform="translate(679.150391 0)"/>
    <use xlink:href="#DejaVuSans-20" transform="translate(714.355469 0)"/>
    <use xlink:href="#DejaVuSans-63" transform="translate(746.142578 0)"/>
    <use xlink:href="#DejaVuSans-6f" transform="translate(801.123047 0)"/>
    <use xlink:href="#DejaVuSans-70" transform="translate(862.304688 0)"/>
    <use xlink:href="#DejaVuSans-69" transform="translate(925.78125 0)"/>
    <use xlink:href="#DejaVuSans-65" transform="translate(953.564453 0)"/>
    <use xlink:href="#DejaVuSans-73" transform="translate(1015.087891 0)"/>
    <use xlink:href="#DejaVuSans-20" transform="translate(1067.1875 0)"/>
    <use xlink:href="#DejaVuSans-64" transform="translate(1098.974609 0)"/>
    <use xlink:href="#DejaVuSans-6f" transform="translate(1162.451172 0)"/>
    <use xlink:href="#DejaVuSans-65" transform="translate(1223.632812 0)"/>
    <use xlink:href="#DejaVuSans-73" transform="translate(1285.15625 0)"/>
    <use xlink:href="#DejaVuSans-20" transform="translate(1337.255859 0)"/>
    <use xlink:href="#DejaVuSans-6e" transform="translate(1369.042969 0)"/>
    <use xlink:href="#DejaVuSans-6f" transform="translate(1432.421875 0)"/>
    <use xlink:href="#DejaVuSans-74" transform="translate(1493.603516 0)"/>
    <use xlink:href="#DejaVuSans-20" transform="translate(1532.8125 0)"/>
    <use xlink:href="#DejaVuSans-65" transform="translate(1564.599609 0)"/>
    <use xlink:href="#DejaVuSans-6e" transform="translate(1626.123047 0)"/>
    <use xlink:href="#DejaVuSans-74" transform="translate(1689.501953 0)"/>
    <use xlink:href="#DejaVuSans-65" transform="translate(1728.710938 0)"/>
    <use xlink:href="#DejaVuSans-72" transform="translate(1790.234375 0)"/>
    <use xlink:href="#DejaVuSans-20" transform="translate(1831.347656 0)"/>
    <use xlink:href="#DejaVuSans-74" transform="translate(1863.134766 0)"/>
    <use xlink:href="#DejaVuSans-68" transform="translate(1902.34375 0)"/>
    <use xlink:href="#DejaVuSans-65" transform="translate(1965.722656 0)"/>
    <use xlink:href="#DejaVuSans-20" transform="translate(2027.246094 0)"/>
    <use xlink:href="#DejaVuSans-64" transform="translate(2059.033203 0)"/>
    <use xlink:href="#DejaVuSans-65" transform="translate(2122.509766 0)"/>
    <use xlink:href="#DejaVuSans-6c" transform="translate(2184.033203 0)"/>
    <use xlink:href="#DejaVuSans-69" transform="translate(2211.816406 0)"/>
    <use xlink:href="#DejaVuSans-76" transform="translate(2239.599609 0)"/>
    <use xlink:href="#DejaVuSans-65" transform="translate(2298.779297 0)"/>
    <use xlink:href="#DejaVuSans-72" transform="translate(2360.302734 0)"/>
    <use xlink:href="#DejaVuSans-79" transform="translate(2401.416016 0)"/>
    <use xlink:href="#DejaVuSans-20" transform="translate(2460.595703 0)"/>
    <use xlink:href="#DejaVuSans-64" transform="translate(2492.382812 0)"/>
    <use xlink:href="#DejaVuSans-65" transform="translate(2555.859375 0)"/>
    <use xlink:href="#DejaVuSans-63" transform="translate(2617.382812 0)"/>
    <use xlink:href="#DejaVuSans-69" transform="translate(2672.363281 0)"/>
    <use xlink:href="#DejaVuSans-73" transform="translate(2700.146484 0)"/>
    <use xlink:href="#DejaVuSans-69" transform="translate(2752.246094 0)"/>
    <use xlink:href="#DejaVuSans-6f" transform="translate(2780.029297 0)"/>
    <use xlink:href="#DejaVuSans-6e" transform="translate(2841.210938 0)"/>
    <use xlink:href="#DejaVuSans-20" transform="translate(2904.589844 0)"/>
    <use xlink:href="#DejaVuSans-2d" transform="translate(2936.376953 0)"/>
    <use xlink:href="#DejaVuSans-2d" transform="translate(2972.460938 0)"/>
    <use xlink:href="#DejaVuSans-20" transform="translate(3008.544922 0)"/>
    <use xlink:href="#DejaVuSans-74" transform="translate(3040.332031 0)"/>
    <use xlink:href="#DejaVuSans-68" transform="translate(3079.541016 0)"/>
    <use xlink:href="#DejaVuSans-65" transform="translate(3142.919922 0)"/>
    <use xlink:href="#DejaVuSans-20" transform="translate(3204.443359 0)"/>
    <use xlink:href="#DejaVuSans-66" transform="translate(3236.230469 0)"/>
    <use xlink:href="#DejaVuSans-69" transform="translate(3271.435547 0)"/>
    <use xlink:href="#DejaVuSans-72" transform="translate(3299.21875 0)"/>
    <use xlink:href="#DejaVuSans-73" transform="translate(3340.332031 0)"/>
    <use xlink:href="#DejaVuSans-74" transform="translate(3392.431641 0)"/>
    <use xlink:href="#DejaVuSans-20" transform="translate(3431.640625 0)"/>
    <use xlink:href="#DejaVuSans-61" transform="translate(3463.427734 0)"/>
    <use xlink:href="#DejaVuSans-72" transform="translate(3524.707031 0)"/>
    <use xlink:href="#DejaVuSans-72" transform="translate(3564.070312 0)"/>
    <use xlink:href="#DejaVuSans-69" transform="translate(3605.183594 0)"/>
    <use xlink:href="#DejaVuSans-76" transform="translate(3632.966797 0)"/>
    <use xlink:href="#DejaVuSans-61" transform="translate(3692.146484 0)"/>
    <use xlink:href="#DejaVuSans-6c" transform="translate(3753.425781 0)"/>
    <use xlink:href="#DejaVuSans-20" transform="translate(3781.208984 0)"/>
    <use xlink:href="#DejaVuSans-64" transform="translate(3812.996094 0)"/>
    <use xlink:href="#DejaVuSans-6f" transform="translate(3876.472656 0)"/>
    <use xlink:href="#DejaVuSans-65" transform="translate(3937.654297 0)"/>
    <use xlink:href="#DejaVuSans-73" transform="translate(3999.177734 0)"/>
    <use xlink:href="#DejaVuSans-2e" transform="translate(4051.277344 0)"/>
   </g>
  </g>
 </g>
 <defs>
  <clipPath id="pb0ebe4f41f">
   <rect x="16.683864" y="43.968" width="663.716136" height="124.72"/>
  </clipPath>
 </defs>
</svg>
